<?xml version="1.0" standalone="no"?>
<!DOCTYPE svg PUBLIC "-//W3C//DTD SVG 20010904//EN"
 "http://www.w3.org/TR/2001/REC-SVG-20010904/DTD/svg10.dtd">
<svg version="1.0" xmlns="http://www.w3.org/2000/svg"
 width="593.000000pt" height="545.000000pt" viewBox="0 0 593.000000 545.000000"
 preserveAspectRatio="xMidYMid meet">
<metadata>
Created by potrace 1.16, written by Peter Selinger 2001-2019
</metadata>
<g transform="translate(0.000000,545.000000) scale(0.100000,-0.100000)"
fill="#000000" stroke="none">
<path d="M1804 5368 c-8 -12 22 -38 44 -38 7 0 28 -11 45 -24 18 -14 84 -54
147 -89 63 -35 152 -85 196 -110 45 -26 85 -47 89 -47 4 0 21 -6 38 -14 33
-14 93 -31 137 -40 14 -2 56 -12 95 -20 130 -29 350 -20 483 20 19 5 22 3 22
-22 0 -15 8 -46 19 -68 10 -23 21 -48 25 -56 4 -8 17 -33 31 -55 13 -22 30
-51 37 -65 29 -59 121 -157 190 -204 18 -12 34 -31 36 -41 5 -38 26 -100 38
-115 7 -8 34 -60 62 -115 27 -55 65 -124 86 -154 24 -35 36 -64 36 -87 0 -20
11 -50 28 -76 28 -42 58 -96 81 -148 6 -14 20 -41 31 -60 11 -19 20 -47 20
-62 0 -15 10 -44 22 -65 19 -31 23 -56 27 -141 2 -60 -1 -113 -7 -125 -6 -12
-13 -105 -16 -207 -4 -102 -11 -203 -16 -225 -5 -22 -10 -91 -10 -154 0 -149
-25 -330 -61 -455 -16 -54 -29 -108 -29 -120 1 -26 -33 -169 -71 -306 -31
-108 -98 -254 -150 -324 -34 -47 -37 -66 -9 -66 11 0 20 4 20 8 0 5 27 56 60
114 55 97 140 318 140 366 0 10 7 42 15 72 9 30 20 84 25 120 6 36 20 94 31
130 29 93 69 377 69 495 1 55 10 199 21 320 29 319 33 403 18 450 -7 22 -17
46 -22 52 -5 7 -6 25 -3 39 6 21 0 37 -22 68 -28 39 -92 174 -92 193 0 14 -90
183 -123 232 -17 25 -50 86 -75 135 -24 50 -49 97 -55 105 -15 18 -37 81 -37
108 0 14 -24 42 -72 84 -77 66 -142 144 -177 214 -12 24 -28 48 -36 55 -8 7
-15 20 -15 29 0 9 -7 26 -15 37 -16 24 -36 103 -26 105 3 1 53 4 111 8 l105 6
32 -40 c149 -182 234 -272 369 -385 117 -99 196 -171 268 -247 32 -35 67 -63
76 -63 19 0 30 -19 30 -54 0 -23 45 -142 61 -161 14 -19 100 -188 120 -239 11
-26 32 -67 47 -90 61 -93 66 -111 53 -172 -10 -44 -12 -161 -7 -503 8 -522 11
-591 33 -591 12 0 14 13 9 83 -3 45 -8 282 -12 527 -5 400 -4 449 11 484 20
47 14 75 -30 142 -39 60 -85 149 -85 165 0 6 -8 23 -18 37 -10 15 -30 58 -46
96 -15 39 -39 83 -52 99 -14 17 -28 43 -31 59 -3 15 -10 31 -14 34 -5 3 -9 21
-9 41 0 26 -5 36 -20 40 -11 3 -20 9 -20 12 0 16 -279 283 -319 306 -46 26
-171 145 -259 245 -16 19 -42 49 -56 65 -15 17 -47 59 -73 95 -70 98 -84 112
-100 99 -8 -8 -13 -8 -13 -1 0 7 -89 12 -257 15 -251 4 -263 5 -428 40 -93 20
-186 37 -205 37 -68 1 -332 74 -435 120 -36 16 -137 50 -149 50 -3 0 -8 -5
-12 -12z"/>
<path d="M1293 3313 c-3 -9 -1 -34 6 -57 7 -23 19 -62 26 -88 8 -26 28 -76 44
-112 17 -35 31 -69 31 -76 0 -7 9 -27 19 -44 10 -17 22 -56 26 -86 4 -30 11
-62 16 -71 5 -10 25 -77 44 -150 40 -150 82 -289 101 -334 7 -16 19 -54 28
-82 9 -29 23 -77 32 -105 9 -29 19 -86 22 -125 4 -65 3 -73 -13 -73 -16 0 -17
-7 -12 -52 7 -63 49 -149 135 -271 12 -17 28 -44 34 -59 7 -16 16 -28 20 -28
4 0 8 -6 8 -14 0 -7 11 -25 25 -40 22 -24 31 -26 102 -26 58 0 90 -6 123 -21
25 -12 65 -27 90 -34 66 -20 133 -44 152 -55 10 -6 22 -10 28 -10 11 0 128
-52 175 -77 17 -9 49 -26 72 -38 38 -21 64 -37 153 -100 19 -14 50 -32 68 -40
17 -8 32 -20 32 -25 0 -6 9 -10 19 -10 11 0 22 -4 26 -9 3 -6 25 -20 50 -32
55 -28 144 -105 155 -135 11 -27 42 -23 34 4 -3 9 5 4 18 -13 31 -40 87 -107
176 -207 40 -46 101 -116 135 -156 126 -149 152 -173 263 -247 119 -79 192
-111 334 -144 103 -25 150 -27 150 -6 0 10 -10 15 -27 15 -39 0 -184 36 -265
65 -70 25 -245 134 -310 193 -21 19 -48 50 -60 70 -21 35 -100 126 -249 286
-36 39 -74 85 -85 101 -10 17 -33 49 -51 73 -18 24 -33 52 -33 63 0 12 -7 19
-20 19 -24 0 -25 -11 -4 -53 14 -28 9 -25 -37 22 -30 30 -74 63 -99 75 -25 12
-59 31 -76 43 -17 12 -43 27 -57 32 -14 5 -52 29 -84 53 -65 48 -83 60 -133
86 -115 62 -196 102 -205 102 -5 0 -32 12 -60 25 -27 14 -57 25 -65 25 -14 1
-103 31 -220 75 -25 10 -78 20 -117 23 -49 3 -73 9 -73 17 0 7 -22 40 -50 74
-27 35 -52 72 -56 84 -3 12 -15 31 -25 43 -58 63 -103 214 -64 214 8 0 29 9
47 20 30 18 51 44 121 147 12 18 29 33 39 33 17 0 68 -54 68 -72 0 -14 72
-108 82 -108 16 0 8 59 -10 72 -11 7 -25 24 -32 38 -7 14 -27 43 -45 65 -17
22 -30 48 -28 57 3 9 -5 26 -16 37 -12 12 -21 27 -21 34 0 6 -8 26 -18 42 -10
17 -25 53 -32 80 -8 28 -22 59 -32 70 -21 22 -248 479 -248 498 0 7 -9 26 -20
42 -11 17 -20 38 -20 47 0 25 -68 149 -96 176 -13 13 -24 27 -24 31 0 10 -115
131 -124 131 -4 0 -9 -7 -13 -17z"/>
<path d="M4840 2855 c0 -11 13 -15 54 -15 52 0 56 -2 98 -48 41 -47 146 -210
180 -282 25 -53 30 -90 35 -265 4 -155 -4 -241 -37 -375 -5 -19 -14 -74 -20
-122 -6 -48 -13 -93 -15 -100 -3 -7 -12 -60 -20 -118 -15 -102 -24 -150 -45
-247 -31 -136 -40 -354 -21 -468 20 -120 70 -287 110 -365 21 -41 43 -92 50
-112 9 -26 19 -38 31 -38 17 0 17 2 -1 50 -10 27 -34 80 -53 117 -37 72 -88
245 -106 353 -19 120 -10 318 19 453 21 90 29 132 40 207 6 41 18 116 26 165
9 50 22 133 31 185 8 52 22 124 30 160 23 101 10 499 -17 516 -5 3 -9 13 -9
22 0 9 -15 39 -33 67 -19 27 -55 84 -82 125 -27 41 -64 92 -84 113 -33 35 -38
37 -98 37 -49 0 -63 -3 -63 -15z"/>
<path d="M2207 1973 c-13 -12 -7 -33 9 -33 9 0 27 -9 41 -20 14 -11 32 -20 40
-20 18 0 161 -68 168 -80 3 -5 22 -14 43 -20 59 -19 102 -40 173 -87 36 -23
72 -43 78 -43 6 0 33 -11 59 -24 113 -57 296 -95 465 -95 83 -1 107 2 107 13
0 10 -32 14 -142 18 -79 3 -154 10 -168 16 -14 5 -50 15 -80 22 -30 7 -75 19
-100 27 -60 20 -217 99 -256 128 -17 13 -61 33 -97 45 -37 12 -70 26 -73 31
-8 14 -144 79 -164 79 -9 0 -31 11 -50 25 -36 27 -43 29 -53 18z"/>
</g>
</svg>
