<?xml version="1.0" standalone="no"?>
<!DOCTYPE svg PUBLIC "-//W3C//DTD SVG 20010904//EN"
 "http://www.w3.org/TR/2001/REC-SVG-20010904/DTD/svg10.dtd">
<svg version="1.0" xmlns="http://www.w3.org/2000/svg"
 width="1280.000000pt" height="720.000000pt" viewBox="0 0 1280.000000 720.000000"
 preserveAspectRatio="xMidYMid meet">
<metadata>
Created by potrace 1.16, written by Peter Selinger 2001-2019
</metadata>
<g transform="translate(0.000000,720.000000) scale(0.100000,-0.100000)"
fill="#000000" stroke="none">
<path d="M2175 6554 c-118 -24 -255 -75 -255 -95 0 -17 22 -20 43 -6 33 21
142 55 237 73 65 12 116 15 215 10 130 -6 186 -17 280 -54 66 -27 287 -98 350
-113 60 -14 195 -72 247 -106 15 -9 30 -15 33 -12 10 11 -7 40 -34 54 l-26 15
30 -6 c17 -4 34 -9 40 -12 13 -8 64 -15 105 -14 19 0 89 0 155 0 66 0 185 0
265 1 80 0 158 1 174 1 16 0 43 4 60 10 17 5 51 12 76 15 25 2 77 11 115 20
39 8 99 20 135 25 38 6 94 25 135 45 79 39 87 41 105 20 7 -8 18 -15 26 -15
12 0 123 -50 154 -70 8 -5 37 -19 63 -31 26 -12 69 -42 94 -67 44 -42 45 -46
28 -58 -23 -17 -44 -74 -50 -134 -12 -110 -15 -132 -20 -141 -11 -16 -44 -10
-98 19 -57 30 -119 53 -125 47 -12 -11 13 -44 37 -50 16 -3 54 -19 85 -36 32
-16 66 -29 77 -29 11 0 18 -4 14 -9 -8 -13 23 -41 46 -41 10 0 19 -4 19 -8 0
-5 17 -18 38 -30 20 -12 53 -36 72 -55 19 -18 50 -38 67 -45 18 -6 48 -22 66
-36 19 -15 38 -26 43 -27 5 0 34 -17 64 -39 30 -21 102 -69 160 -106 58 -37
120 -80 138 -96 18 -15 36 -28 40 -28 4 0 22 -12 39 -27 75 -66 164 -108 302
-144 88 -23 81 -23 81 -3 0 22 -119 133 -201 189 -36 24 -72 51 -79 60 -7 8
-17 15 -22 15 -6 0 -42 33 -82 73 -112 113 -296 288 -350 332 -89 74 -107 90
-188 165 -88 82 -143 157 -128 176 12 13 -42 102 -67 111 -10 3 -25 12 -33 18
-13 11 -77 47 -165 92 -11 6 -34 18 -52 27 -17 9 -36 16 -42 16 -7 0 -21 9
-33 20 -30 28 -48 25 -115 -15 -31 -19 -82 -39 -113 -45 -104 -19 -155 -29
-205 -40 -113 -24 -277 -41 -390 -40 -449 2 -552 9 -592 42 -21 17 -36 -2 -18
-22 16 -17 15 -18 -17 -6 -18 6 -42 17 -53 23 -11 6 -54 21 -95 33 -120 34
-321 100 -375 122 -103 41 -149 49 -305 53 -110 3 -175 0 -225 -11z"/>
<path d="M4526 5868 c-8 -5 -68 -11 -132 -14 -65 -3 -125 -9 -134 -14 -8 -4
-64 -8 -125 -9 -60 -1 -141 -5 -180 -10 -107 -13 -267 -58 -312 -87 -12 -8
-28 -14 -34 -14 -22 0 -189 -104 -189 -117 0 -21 14 -16 102 37 46 27 90 50
98 50 9 0 25 7 37 15 41 29 201 73 308 86 39 4 122 10 185 12 145 6 353 23
383 33 12 4 39 6 61 6 44 -2 57 3 50 22 -6 15 -93 18 -118 4z"/>
<path d="M1182 5733 c-18 -7 34 -52 120 -103 59 -35 232 -195 309 -285 35 -41
139 -223 139 -243 0 -9 7 -25 14 -35 8 -10 24 -51 36 -90 25 -78 85 -241 101
-270 6 -10 23 -54 39 -97 16 -43 33 -87 38 -97 6 -10 17 -36 25 -58 9 -22 27
-70 41 -107 14 -36 26 -72 26 -78 0 -7 39 -80 87 -164 93 -161 183 -265 261
-301 20 -10 80 -38 132 -64 134 -66 171 -76 211 -55 70 36 88 50 80 63 -7 10
-20 6 -60 -17 -64 -36 -72 -34 -244 51 -143 70 -169 88 -228 152 -43 47 -209
321 -209 345 0 7 -12 42 -26 78 -14 37 -32 85 -41 107 -8 22 -21 54 -28 70 -8
17 -31 73 -51 125 -20 52 -44 113 -53 135 -26 59 -45 111 -75 200 -45 130 -52
146 -107 240 -79 136 -249 320 -367 397 -31 21 -78 53 -104 73 -25 19 -48 35
-50 34 -1 0 -9 -3 -16 -6z"/>
<path d="M3291 5611 c-11 -7 -12 -39 -8 -157 4 -123 10 -169 35 -264 35 -130
64 -222 94 -295 11 -27 31 -90 43 -140 27 -108 125 -334 193 -448 27 -45 53
-93 57 -106 4 -14 21 -46 36 -72 16 -25 29 -52 29 -60 0 -8 15 -39 34 -71 19
-31 32 -58 30 -61 -3 -3 9 -27 25 -55 17 -27 31 -55 31 -61 0 -19 91 -171 119
-200 14 -14 38 -34 53 -44 15 -9 25 -23 22 -30 -3 -9 18 -25 58 -46 35 -18 94
-55 132 -84 87 -65 172 -120 256 -162 36 -18 102 -58 148 -89 46 -31 89 -56
95 -56 7 0 20 -8 29 -17 57 -62 77 -74 134 -83 93 -15 175 -39 224 -64 111
-58 145 -78 160 -91 9 -8 20 -15 23 -15 4 0 23 -16 42 -35 l36 -34 -22 -22
c-12 -12 -54 -41 -93 -64 -69 -40 -74 -42 -107 -30 -19 7 -56 20 -84 30 -27
10 -59 22 -70 28 -11 6 -29 12 -40 13 -11 2 -51 13 -90 25 -66 20 -192 46
-260 53 -65 7 -264 48 -328 68 -38 12 -83 21 -101 22 -25 1 -44 12 -82 51 -28
28 -70 60 -94 73 -66 35 -116 65 -138 85 -10 9 -23 17 -28 17 -5 0 -24 12 -41
28 -18 15 -78 52 -134 82 -101 55 -113 67 -122 127 -5 32 -185 342 -222 383
-13 14 -82 123 -154 243 -139 231 -187 298 -208 290 -11 -4 -10 -11 3 -32 9
-14 22 -31 30 -37 7 -6 75 -114 149 -239 75 -126 142 -233 150 -239 7 -6 60
-87 116 -181 83 -138 103 -178 105 -215 3 -50 20 -68 101 -109 76 -39 163 -93
163 -102 0 -4 9 -10 19 -14 11 -3 52 -30 93 -60 40 -30 79 -55 86 -55 24 0
107 -62 125 -92 10 -17 24 -29 34 -27 10 0 20 0 23 -1 3 -1 30 -7 60 -15 30
-7 69 -17 85 -23 44 -16 267 -57 410 -77 58 -7 130 -27 231 -61 39 -13 76 -24
82 -24 10 0 49 -16 169 -71 47 -21 83 -25 83 -9 0 5 4 9 9 7 4 -1 89 46 189
105 177 105 308 164 537 238 39 13 79 29 91 37 51 33 328 110 424 118 30 2 80
13 143 31 9 3 17 11 17 19 0 10 -35 12 -172 10 -384 -6 -417 -8 -499 -26 -84
-18 -213 -60 -226 -72 -3 -4 -13 -7 -22 -7 -33 0 -257 -144 -315 -203 l-59
-59 -15 24 c-19 32 -110 95 -192 133 -19 9 -41 22 -50 29 -8 7 -27 16 -42 20
-15 3 -40 11 -55 18 -15 6 -37 12 -48 13 -102 10 -141 24 -190 69 -27 25 -54
46 -60 46 -6 0 -46 24 -90 54 -44 30 -112 70 -151 89 -42 21 -82 48 -95 66
-22 30 -69 61 -92 61 -6 0 -25 11 -43 25 -18 14 -35 25 -39 25 -3 0 -15 9 -27
20 -11 10 -39 28 -62 39 -23 10 -47 30 -55 43 -7 14 -27 33 -44 43 -18 10 -42
28 -53 39 -37 36 -108 160 -106 185 1 13 -25 69 -63 131 -36 59 -65 113 -65
120 0 7 -13 34 -28 59 -16 25 -34 61 -40 79 -6 18 -34 71 -62 117 -66 110
-157 319 -181 417 -10 43 -26 95 -35 115 -9 21 -27 72 -40 113 -12 41 -31 100
-42 130 -40 113 -65 275 -60 386 5 108 1 128 -21 115z"/>
<path d="M7070 4990 c0 -5 -5 -10 -11 -10 -6 0 -79 -65 -162 -144 -153 -146
-221 -198 -422 -321 -60 -37 -121 -78 -135 -90 -34 -31 -169 -111 -238 -142
-31 -14 -80 -36 -108 -49 -28 -13 -55 -24 -61 -24 -19 0 -115 -53 -120 -67 -9
-22 5 -27 34 -14 16 7 43 15 62 17 19 3 52 9 75 15 23 6 66 17 96 24 30 8 91
23 135 34 161 40 241 66 266 87 8 8 22 14 29 14 7 0 28 11 46 25 18 14 35 25
38 25 2 0 37 22 78 49 74 49 268 239 268 263 1 21 62 85 67 71 3 -7 21 -20 41
-29 20 -9 46 -20 57 -25 34 -14 109 -39 122 -39 6 0 24 -5 40 -12 35 -15 61
-17 198 -18 103 0 115 -2 170 -30 32 -16 65 -30 72 -30 7 0 54 -16 105 -36 51
-20 121 -42 156 -50 71 -16 121 -38 128 -58 3 -8 26 -17 52 -20 46 -7 80 -18
169 -57 24 -11 51 -19 62 -19 11 0 33 -11 49 -25 17 -14 33 -25 37 -25 25 0
115 -54 146 -87 58 -62 89 -104 84 -113 -2 -4 37 -53 88 -109 110 -121 149
-166 189 -223 17 -24 61 -74 98 -113 83 -87 223 -278 254 -348 13 -29 44 -82
70 -120 25 -37 46 -71 46 -76 0 -5 16 -33 36 -62 93 -136 188 -373 198 -490 4
-46 20 -69 37 -52 7 7 1 46 -21 134 -34 134 -79 245 -144 352 -22 37 -50 85
-62 106 -11 21 -39 66 -62 100 -22 34 -53 87 -68 119 -14 31 -56 98 -92 147
-36 50 -77 105 -90 124 -14 19 -59 71 -101 117 -42 46 -95 107 -119 136 -110
135 -142 177 -142 185 0 5 -18 27 -40 48 -22 21 -40 44 -40 51 0 6 -43 53 -95
103 -70 66 -103 91 -121 91 -17 0 -28 7 -31 20 -5 20 -13 24 -73 35 -36 7
-116 41 -181 75 -40 21 -195 72 -269 88 -25 6 -87 26 -138 46 -51 20 -98 36
-105 36 -14 0 -68 26 -108 53 -24 16 -38 17 -110 9 -68 -7 -102 -6 -179 10
-52 10 -103 23 -112 28 -10 6 -25 10 -34 10 -22 0 -140 56 -149 70 -3 6 -12 7
-18 3 -7 -3 -4 3 6 14 9 11 17 23 17 28 0 4 29 35 65 69 l65 61 52 -8 c73 -11
127 -16 238 -22 52 -3 103 -7 113 -9 10 -3 73 0 139 5 67 5 216 10 333 11
l211 2 40 -31 c38 -29 67 -41 189 -79 33 -10 64 -22 70 -26 5 -4 16 -8 25 -8
8 0 26 -6 40 -13 32 -16 127 -50 205 -73 74 -21 81 -27 105 -78 12 -28 134
-158 383 -409 201 -202 370 -367 376 -367 5 0 13 5 16 11 8 11 -32 59 -49 59
-6 0 -94 89 -196 196 -102 108 -192 199 -201 203 -30 12 -297 303 -302 330
-10 48 -30 61 -150 96 -65 20 -135 44 -155 55 -20 11 -42 20 -49 20 -7 0 -42
14 -78 30 -36 17 -77 30 -92 30 -32 0 -122 42 -145 67 -16 17 -35 18 -262 16
-135 -1 -250 -4 -256 -8 -12 -8 -288 -7 -350 1 -25 4 -65 8 -90 9 -25 2 -83
10 -130 19 -100 18 -120 19 -120 6z"/>
<path d="M9771 4456 c-54 -55 -38 -71 23 -22 54 45 81 46 246 5 19 -4 55 -12
80 -18 52 -11 136 -47 145 -61 4 -6 23 -19 43 -29 42 -21 238 -234 286 -309
17 -28 40 -63 50 -78 11 -16 36 -53 55 -82 20 -30 55 -81 79 -115 23 -34 58
-84 77 -112 19 -27 48 -69 65 -93 16 -23 39 -59 50 -80 29 -54 41 -72 78 -119
17 -23 32 -45 32 -50 0 -4 42 -51 93 -104 119 -124 333 -266 454 -302 27 -8
68 -24 91 -36 45 -23 68 -26 77 -12 6 11 -86 56 -159 78 -72 22 -234 116 -331
192 -62 48 -163 152 -187 191 -12 19 -32 47 -46 62 -25 27 -28 31 -75 114 -30
54 -68 112 -107 166 -14 19 -51 72 -82 119 -32 46 -80 116 -107 154 -27 39
-64 95 -82 125 -42 72 -252 296 -301 321 -21 11 -38 23 -38 27 0 11 -93 51
-147 63 -26 5 -64 14 -83 18 -85 21 -146 31 -189 31 -42 0 -51 -4 -90 -44z"/>
<path d="M9500 2419 c-36 -34 -81 -71 -100 -85 -19 -13 -53 -36 -75 -51 -54
-38 -193 -109 -230 -117 -16 -4 -43 -14 -60 -21 -16 -7 -61 -19 -100 -25 -38
-7 -98 -25 -133 -41 -34 -16 -72 -29 -85 -29 -27 -1 -149 -41 -168 -57 -8 -5
-32 -13 -53 -16 -46 -7 -65 -22 -49 -38 12 -12 88 5 113 25 8 7 38 19 65 26
28 7 54 17 60 21 5 5 21 9 37 9 15 0 53 12 85 27 54 25 74 30 178 48 22 4 58
16 81 26 22 10 45 19 51 19 17 0 155 66 197 95 20 14 40 25 45 25 4 0 18 11
31 25 13 14 28 25 34 25 17 0 168 155 160 163 -12 11 -16 9 -84 -54z"/>
<path d="M6854 2308 c-4 -7 6 -23 24 -38 39 -32 209 -118 251 -126 17 -4 36
-13 42 -20 6 -8 19 -14 29 -14 9 0 41 -18 71 -39 30 -21 86 -56 124 -77 39
-21 102 -58 140 -83 79 -51 86 -55 250 -141 236 -124 326 -188 312 -224 -7
-18 75 -96 101 -96 10 0 22 -4 28 -10 5 -5 38 -16 74 -26 143 -36 186 -46 205
-48 11 -1 33 -8 48 -14 16 -7 30 -12 32 -12 2 0 32 24 65 54 37 33 85 64 123
79 54 22 242 102 334 143 17 8 38 14 47 14 9 0 24 4 34 10 22 12 122 39 187
50 45 7 156 27 195 34 28 6 75 18 117 32 24 8 82 13 135 13 116 -1 113 -2 98
16 -14 17 -9 18 45 5 22 -6 101 -15 175 -20 74 -6 185 -16 245 -22 172 -17
327 -15 435 6 148 29 410 164 410 212 0 20 -2 19 -77 -32 -214 -147 -420 -190
-753 -156 -58 5 -168 15 -245 21 -77 7 -153 16 -169 21 -16 6 -41 10 -55 10
-15 0 -43 8 -64 19 -29 15 -39 16 -47 6 -13 -15 6 -33 47 -44 19 -6 0 -9 -63
-9 -49 -1 -103 -6 -120 -13 -50 -20 -182 -47 -304 -64 -25 -3 -63 -12 -85 -20
-22 -7 -58 -16 -80 -20 -22 -4 -44 -10 -50 -15 -5 -4 -21 -11 -35 -15 -39 -10
-147 -54 -240 -98 -46 -21 -108 -48 -137 -59 -31 -11 -76 -41 -108 -70 -52
-47 -56 -49 -87 -40 -18 6 -64 16 -102 22 -39 6 -75 14 -80 18 -6 4 -33 12
-61 18 -75 18 -137 43 -162 66 -20 18 -21 24 -9 37 21 25 26 83 15 183 -12
122 -7 129 88 105 97 -23 143 -29 143 -19 0 16 -31 36 -59 39 -14 2 -44 8 -66
13 -22 6 -56 11 -75 13 -19 1 -42 10 -52 20 -10 9 -27 17 -38 17 -26 0 -86 25
-167 71 -18 10 -46 19 -61 19 -16 0 -47 9 -70 20 -22 11 -47 20 -55 20 -8 0
-54 16 -103 36 -49 20 -130 51 -181 69 -50 19 -102 40 -115 48 -13 8 -37 18
-55 22 -17 3 -37 13 -44 21 -6 8 -20 14 -31 14 -10 0 -32 7 -48 15 -50 26
-304 52 -316 33z"/>
</g>
</svg>
