<?xml version="1.0" standalone="no"?>
<!DOCTYPE svg PUBLIC "-//W3C//DTD SVG 20010904//EN"
 "http://www.w3.org/TR/2001/REC-SVG-20010904/DTD/svg10.dtd">
<svg version="1.0" xmlns="http://www.w3.org/2000/svg"
 width="1045.000000pt" height="610.000000pt" viewBox="0 0 1045.000000 610.000000"
 preserveAspectRatio="xMidYMid meet">
<metadata>
Created by potrace 1.16, written by Peter Selinger 2001-2019
</metadata>
<g transform="translate(0.000000,610.000000) scale(0.100000,-0.100000)"
fill="#000000" stroke="none">
<path d="M3116 5988 c-20 -29 -54 -80 -76 -113 -36 -56 -168 -198 -251 -271
-40 -35 -221 -144 -239 -144 -6 0 -28 -9 -48 -19 -58 -30 -111 -51 -128 -51
-18 0 -132 -45 -224 -88 -25 -12 -65 -29 -89 -37 -25 -8 -63 -24 -85 -34 -23
-10 -61 -27 -86 -36 -25 -9 -56 -23 -70 -30 -14 -7 -47 -20 -75 -28 -68 -20
-319 -169 -380 -226 -63 -58 -79 -82 -142 -211 -102 -211 -105 -225 -68 -292
29 -53 42 -65 55 -52 5 5 -4 30 -21 57 -27 44 -29 51 -19 89 7 22 15 48 20 57
5 9 32 65 61 126 59 122 54 116 126 190 54 56 311 216 368 229 17 4 48 15 70
25 22 10 60 26 85 36 25 9 75 30 111 46 36 16 70 29 75 29 5 0 31 11 59 24 84
40 223 96 239 96 17 0 70 21 128 51 20 10 43 19 49 19 7 0 60 28 118 62 90 52
127 83 241 198 87 87 145 155 164 190 16 30 45 74 64 97 30 37 35 63 13 63 -4
0 -24 -24 -45 -52z"/>
<path d="M4462 5692 c-18 -26 -47 -72 -64 -102 -45 -79 -275 -306 -362 -357
l-70 -40 -27 58 c-20 42 -32 57 -43 53 -13 -5 -11 -14 11 -59 27 -55 26 -85
-3 -85 -10 0 -36 -11 -58 -23 -23 -13 -68 -32 -101 -41 -57 -17 -164 -58 -250
-97 -22 -10 -67 -28 -100 -40 -33 -12 -65 -26 -71 -30 -6 -5 -45 -21 -85 -35
-41 -14 -78 -29 -84 -34 -5 -4 -35 -15 -65 -25 -90 -29 -333 -179 -396 -243
-78 -81 -84 -88 -84 -96 0 -3 -27 -62 -59 -129 -33 -67 -65 -143 -71 -168 -11
-43 -10 -48 22 -102 24 -39 38 -53 47 -48 10 7 7 19 -15 57 -41 69 -41 67 63
282 75 155 134 215 313 320 75 43 160 87 190 97 30 10 66 24 80 31 14 7 52 22
85 34 33 12 64 25 70 29 5 5 37 18 70 30 33 12 78 30 100 40 87 40 193 80 250
97 33 9 78 27 100 39 60 33 92 39 99 18 51 -169 46 -444 -9 -573 -13 -30 -27
-66 -30 -80 -7 -27 -75 -250 -105 -340 -30 -95 -59 -164 -80 -193 -12 -15 -18
-32 -15 -37 9 -15 42 6 50 31 15 45 14 8 0 -49 -12 -46 -14 -92 -10 -192 3
-73 2 -142 -1 -155 -4 -17 -24 -30 -82 -53 -42 -16 -102 -35 -132 -42 -30 -7
-99 -33 -153 -57 -55 -24 -101 -42 -103 -40 -3 2 -13 33 -23 68 -26 87 -50
152 -62 163 -5 6 -9 17 -9 25 0 18 -110 201 -121 201 -23 0 -14 -26 32 -100
27 -45 53 -89 56 -98 3 -10 11 -30 18 -47 38 -89 46 -109 60 -166 9 -33 15
-62 13 -63 -81 -55 -360 -206 -381 -206 -3 0 -28 -13 -54 -30 -26 -16 -53 -30
-60 -30 -7 0 -35 -13 -61 -30 -27 -16 -54 -30 -60 -30 -17 0 -163 -89 -195
-119 -16 -14 -34 -37 -41 -51 -6 -14 -20 -24 -30 -23 -12 1 -26 -17 -47 -60
-16 -34 -53 -93 -82 -131 -60 -80 -141 -213 -165 -271 -9 -22 -40 -76 -70
-120 -29 -44 -59 -93 -67 -110 -7 -16 -31 -50 -54 -75 -23 -24 -42 -53 -43
-65 -6 -80 -21 -149 -39 -192 -10 -24 -16 -43 -12 -43 3 0 0 -6 -6 -14 -7 -8
-27 -43 -44 -78 -45 -88 -84 -146 -107 -160 -11 -7 -20 -18 -20 -25 0 -20 -46
32 -94 107 l-46 70 16 48 c9 26 20 52 25 58 6 7 12 25 14 40 3 16 16 63 29
104 46 142 56 179 56 215 0 20 4 55 9 78 5 23 19 103 31 177 12 74 31 165 42
202 11 37 18 79 16 92 -3 16 2 32 13 43 10 10 34 33 53 52 20 19 44 51 54 70
30 61 107 189 131 217 18 21 61 95 96 161 41 78 52 88 102 98 37 7 358 198
403 240 14 12 120 80 235 151 116 70 223 140 239 156 15 15 32 28 37 28 4 0 6
12 4 28 -2 15 -4 30 -4 33 -1 7 -175 3 -261 -6 -93 -9 -281 -64 -465 -135 -38
-15 -95 -33 -125 -40 -73 -16 -337 -131 -408 -177 -60 -39 -500 -263 -516
-263 -31 0 -236 -145 -236 -167 0 -14 -33 -41 -44 -37 -8 3 -23 -19 -40 -57
-16 -33 -34 -68 -42 -78 -60 -68 -168 -238 -208 -326 -10 -22 -38 -70 -62
-107 -24 -37 -53 -85 -65 -107 -11 -22 -38 -60 -61 -85 -36 -42 -41 -54 -52
-133 -12 -80 -42 -180 -57 -193 -3 -3 -12 -22 -20 -42 -7 -21 -16 -38 -20 -38
-4 0 -13 -16 -19 -35 -6 -19 -15 -35 -20 -35 -5 0 -11 -8 -14 -17 -3 -10 -22
-35 -41 -56 l-34 -38 -21 21 c-11 11 -41 52 -66 91 l-45 71 17 54 c9 30 21 57
25 60 5 3 9 17 9 31 0 13 6 37 14 51 16 30 65 199 71 247 2 17 7 55 11 85 8
64 10 73 18 120 13 71 24 136 31 185 4 28 11 55 15 60 13 18 32 115 26 132 -5
12 7 30 43 62 27 26 63 72 80 104 17 31 43 76 58 99 16 22 32 48 38 57 5 9 28
45 51 81 23 36 58 98 80 137 39 74 46 80 120 96 26 7 363 214 383 237 9 10
111 75 226 146 204 124 298 191 288 207 -9 14 -32 6 -60 -21 -15 -15 -126 -88
-247 -162 -120 -73 -226 -141 -235 -151 -30 -32 -360 -229 -383 -228 -61 2
-79 -16 -129 -123 -18 -38 -37 -68 -42 -68 -6 0 -8 -3 -4 -6 3 -4 -12 -30 -34
-59 -21 -28 -39 -55 -39 -58 0 -4 -16 -28 -36 -54 -19 -25 -49 -75 -66 -110
-17 -35 -50 -80 -74 -102 -27 -25 -42 -45 -38 -54 3 -8 0 -18 -5 -22 -6 -3 -9
-11 -5 -16 3 -6 -3 -40 -14 -77 -24 -80 -42 -165 -42 -198 0 -13 -4 -32 -9
-42 -9 -15 -24 -118 -36 -231 -5 -50 -54 -231 -71 -263 -8 -14 -14 -35 -14
-45 0 -11 -9 -38 -20 -61 -11 -22 -20 -46 -20 -51 0 -6 -8 -25 -18 -43 -27
-49 -33 -78 -16 -85 8 -3 12 -8 9 -12 -2 -4 44 -86 103 -182 109 -175 159
-284 237 -509 20 -58 43 -116 52 -129 36 -55 101 -287 123 -436 12 -84 32
-140 50 -140 8 0 14 5 13 10 -2 10 -16 481 -15 520 0 25 -18 134 -25 155 -3 8
-7 28 -9 44 -2 16 -9 34 -14 41 -10 11 -50 129 -50 146 0 4 -34 63 -75 130
-48 78 -97 145 -136 183 l-62 59 27 20 c14 10 41 42 59 70 95 152 141 262 155
377 9 70 13 78 56 125 25 28 46 56 46 63 0 7 26 52 57 100 32 48 63 101 71
117 36 81 57 114 79 126 23 12 63 75 63 99 0 5 20 38 43 73 24 34 52 78 61 98
9 20 28 42 42 50 14 7 33 27 41 44 9 16 26 41 39 54 37 37 163 111 187 109 12
-1 63 23 112 54 50 30 140 78 200 108 61 29 146 75 190 103 99 61 324 161 408
182 34 8 96 28 137 44 110 42 192 70 310 103 89 26 126 31 250 34 l145 4 -35
-29 c-19 -17 -132 -89 -250 -162 -118 -72 -222 -140 -231 -150 -9 -10 -94 -66
-189 -124 -140 -86 -182 -107 -218 -110 -30 -3 -49 -10 -56 -22 -6 -10 -30
-53 -54 -96 -23 -43 -55 -96 -70 -119 -15 -22 -33 -53 -41 -67 -7 -14 -23 -37
-35 -51 -36 -42 -66 -88 -66 -102 0 -22 -40 -81 -80 -118 -27 -25 -39 -47 -44
-75 -4 -22 -15 -69 -25 -105 -25 -85 -59 -277 -81 -450 -8 -68 -36 -173 -64
-250 -10 -25 -22 -62 -27 -82 -9 -36 -14 -50 -58 -150 -23 -52 -27 -78 -11
-78 6 0 10 -7 10 -15 0 -8 47 -91 104 -184 112 -181 127 -214 212 -446 30 -82
61 -162 69 -176 43 -77 103 -287 124 -434 16 -111 68 -205 65 -119 0 16 -4
142 -8 279 -8 264 -10 296 -25 354 -6 20 -12 47 -15 61 -2 14 -9 39 -16 55
-26 63 -29 71 -42 110 -23 73 -148 267 -210 328 -37 36 -58 64 -54 73 3 8 9
14 14 14 17 0 88 107 126 189 9 19 22 41 29 49 19 23 67 211 67 263 0 14 10
35 23 46 36 34 61 67 80 108 10 21 41 72 68 112 27 40 49 76 49 79 0 26 57
117 84 133 22 14 37 34 46 63 8 24 24 57 37 74 13 17 23 36 23 42 0 7 4 12 9
12 4 0 22 26 39 58 17 32 42 64 55 71 14 7 29 23 35 35 19 43 63 84 134 127
40 24 80 42 90 41 10 -2 62 23 116 56 53 33 147 83 207 112 61 30 145 75 189
102 43 27 84 52 91 54 16 6 25 -66 26 -191 0 -49 5 -108 11 -130 6 -22 12 -78
15 -125 2 -47 6 -101 9 -120 3 -19 8 -61 11 -93 4 -47 8 -58 21 -55 21 4 20
44 -2 178 -8 53 -13 106 -9 118 3 12 0 43 -7 70 -7 26 -14 94 -16 152 -2 58
-6 130 -10 160 l-6 56 108 46 c60 26 138 55 174 63 36 9 85 25 110 36 75 31
70 37 76 -106 6 -157 9 -195 17 -215 3 -8 8 -37 12 -65 3 -27 10 -66 15 -85 5
-19 16 -66 24 -105 34 -161 40 -182 68 -227 l30 -48 -31 -65 c-17 -36 -31 -70
-31 -75 0 -6 -10 -27 -23 -48 -13 -20 -30 -53 -37 -72 -34 -85 -121 -179 -134
-145 -11 31 -136 61 -236 58 -30 -1 -50 13 -50 36 0 8 13 43 29 76 57 122 59
132 23 121 -11 -4 -23 -19 -27 -34 -3 -15 -20 -55 -36 -88 -16 -34 -29 -69
-29 -78 0 -9 -5 -15 -12 -13 -7 1 -19 -11 -28 -28 -35 -69 -77 -129 -120 -173
-8 -8 -19 -29 -25 -46 -13 -39 -37 -78 -242 -390 -32 -49 -68 -105 -79 -124
-12 -19 -28 -38 -35 -43 -13 -8 -28 -33 -65 -110 -49 -101 -58 -127 -81 -241
-8 -42 21 -36 65 13 20 23 51 57 67 74 17 18 41 52 55 75 14 23 37 57 53 75
15 18 27 36 27 41 0 4 31 37 68 73 37 37 88 90 113 119 26 29 77 85 115 125
67 71 90 97 192 222 111 136 235 243 251 216 4 -6 22 -1 49 15 42 25 94 95
122 164 8 19 25 50 37 69 13 19 23 39 23 46 0 13 46 105 61 119 15 16 11 30
-31 102 -27 47 -43 90 -50 134 -5 36 -17 94 -25 130 -34 144 -67 411 -60 495
1 17 3 37 4 46 1 20 100 60 237 96 81 21 125 26 244 28 115 2 145 5 145 16 0
11 -29 14 -150 13 -132 -2 -163 -5 -260 -31 -60 -17 -133 -39 -162 -51 l-51
-21 -2 72 c-6 243 2 324 33 365 7 9 6 17 -2 25 -9 9 -14 9 -22 -3 -16 -25 1
40 23 82 10 21 27 73 37 115 11 43 31 110 45 148 13 39 30 93 37 120 6 28 20
66 30 85 51 104 65 360 28 534 -11 54 -19 99 -17 100 2 2 37 23 78 47 93 54
308 266 359 355 19 32 50 78 69 102 19 24 31 49 28 57 -9 24 -19 17 -54 -33z"/>
<path d="M8504 5528 c3 -29 8 -141 12 -248 4 -107 8 -206 9 -220 8 -96 19
-161 26 -166 5 -3 9 -18 9 -34 0 -16 6 -41 14 -57 21 -41 33 -72 50 -124 22
-70 155 -278 215 -336 l53 -53 -31 -30 c-30 -31 -49 -60 -73 -112 -7 -16 -16
-28 -19 -28 -4 0 -13 -16 -19 -35 -6 -19 -17 -41 -23 -48 -19 -19 -53 -153
-61 -244 -3 -28 -12 -52 -28 -68 -45 -47 -58 -65 -73 -101 -8 -20 -35 -67 -60
-104 -25 -37 -53 -90 -63 -116 -9 -27 -35 -67 -57 -89 -22 -22 -46 -53 -54
-70 -25 -56 -55 -110 -79 -145 -13 -19 -30 -49 -39 -67 -8 -18 -23 -35 -33
-38 -9 -3 -31 -28 -48 -55 -23 -37 -52 -64 -109 -100 -46 -30 -85 -49 -96 -46
-11 3 -55 -17 -105 -48 -77 -46 -271 -146 -284 -146 -3 0 -50 -27 -104 -60
l-99 -60 -11 62 c-7 35 -12 110 -13 167 -1 57 -6 112 -12 122 -5 10 -12 56
-15 101 -3 46 -7 99 -10 118 -3 19 -8 61 -11 93 -4 47 -8 58 -21 55 -20 -4
-21 -41 -3 -143 7 -38 14 -105 16 -147 2 -42 8 -85 13 -95 5 -10 10 -61 11
-113 1 -52 7 -123 13 -158 6 -36 7 -67 2 -72 -21 -18 -198 -89 -251 -100 -32
-7 -86 -23 -121 -37 -35 -14 -65 -23 -67 -21 -2 2 -7 60 -10 128 -10 186 -16
231 -60 415 -9 39 -21 92 -26 119 -12 73 -28 116 -60 167 l-29 46 19 39 c11
21 24 50 29 64 5 14 26 59 46 101 20 42 36 79 36 82 0 14 63 98 82 108 15 8
24 7 36 -4 31 -28 90 -45 174 -52 55 -4 87 -11 94 -21 12 -15 8 -50 -7 -69
-14 -19 -61 -146 -56 -151 11 -12 45 17 51 43 4 16 18 51 32 80 13 28 24 61
24 72 0 12 5 20 12 19 6 -2 22 17 36 42 13 25 30 52 38 61 8 8 14 19 14 22 0
6 29 43 56 71 6 7 15 23 19 36 10 33 52 104 200 340 76 120 104 163 137 204
13 16 30 41 38 56 52 95 61 112 56 117 -3 3 2 20 11 37 9 17 20 51 25 76 5 25
11 57 15 73 8 41 -22 35 -65 -15 -20 -23 -46 -51 -58 -62 -20 -21 -109 -148
-131 -190 -7 -13 -34 -43 -60 -67 -27 -24 -73 -73 -103 -109 -30 -36 -77 -88
-105 -115 -44 -44 -115 -127 -187 -219 -114 -144 -230 -248 -259 -231 -34 21
-121 -70 -159 -165 -8 -19 -24 -52 -37 -72 -13 -21 -23 -43 -23 -49 0 -6 -6
-23 -14 -37 -7 -15 -23 -45 -34 -68 l-21 -40 35 -58 c34 -57 47 -98 80 -251 9
-44 20 -91 25 -105 16 -46 39 -254 41 -368 l3 -113 -55 -21 c-142 -53 -239
-70 -400 -73 -123 -2 -155 -5 -155 -16 0 -11 27 -15 125 -17 134 -3 278 19
390 60 99 36 95 37 94 -29 0 -32 2 -89 6 -128 7 -84 -4 -185 -25 -227 -16 -33
-11 -53 12 -44 17 7 12 -15 -17 -79 -10 -22 -23 -66 -30 -98 -6 -32 -24 -97
-39 -145 -16 -48 -34 -112 -41 -142 -7 -30 -19 -68 -28 -85 -29 -57 -41 -140
-42 -280 0 -116 4 -157 25 -239 14 -55 24 -100 22 -101 -1 -1 -31 -19 -67 -40
-120 -69 -313 -263 -366 -367 -13 -26 -37 -63 -54 -81 -29 -34 -38 -61 -22
-71 10 -6 71 75 108 145 39 73 270 304 346 347 32 18 60 32 63 32 2 0 16 -25
30 -55 15 -30 30 -55 35 -55 20 0 19 21 -5 68 -14 27 -25 55 -25 61 0 5 17 15
38 20 20 6 46 17 57 24 11 7 47 21 80 31 33 10 76 23 95 31 19 7 62 24 95 36
33 13 65 27 71 31 6 5 43 19 81 32 38 13 78 29 89 35 20 12 124 51 209 79 85
28 324 174 383 233 76 78 82 85 82 93 0 4 21 51 46 104 48 103 84 200 84 229
-1 31 -64 123 -78 114 -10 -6 -6 -20 18 -61 l32 -54 -20 -60 c-12 -34 -43
-109 -71 -168 -70 -147 -131 -209 -306 -309 -71 -41 -152 -81 -180 -91 -92
-30 -218 -78 -229 -87 -6 -5 -29 -14 -51 -21 -22 -7 -83 -30 -135 -52 -124
-52 -153 -63 -225 -84 -33 -9 -73 -25 -90 -34 -16 -10 -44 -21 -61 -24 l-31
-7 -21 98 c-36 162 -27 397 20 488 8 17 21 55 28 85 7 30 25 94 41 142 15 48
33 113 39 145 7 32 20 76 30 98 10 22 23 55 29 73 5 18 19 45 29 60 24 34 19
56 -9 42 -10 -6 -19 -17 -19 -25 0 -7 -5 -17 -12 -21 -8 -5 -9 -2 -4 12 19 47
25 138 18 249 -4 66 -6 130 -4 142 5 29 83 65 188 89 43 9 121 36 173 59 l96
43 18 -62 c20 -68 42 -128 63 -168 8 -14 14 -32 14 -39 0 -10 100 -180 116
-198 3 -3 9 0 15 6 7 7 -7 38 -45 102 -31 50 -56 96 -56 102 0 6 -6 23 -14 37
-22 42 -44 103 -56 152 -6 25 -13 52 -16 61 -3 12 16 29 68 60 79 47 396 209
410 209 5 0 26 11 48 25 22 14 45 25 52 25 20 0 180 99 208 128 14 14 30 35
36 47 5 11 17 19 26 17 10 -1 23 14 37 45 12 27 25 53 29 59 4 6 20 31 36 55
16 24 36 53 46 64 24 26 112 181 132 231 9 21 41 79 72 128 31 49 56 94 56
101 0 6 20 32 44 58 42 44 46 51 56 129 11 80 38 188 50 198 4 3 12 21 20 40
7 19 18 42 25 50 6 8 16 26 23 40 17 37 33 59 68 95 l30 33 21 -22 c11 -11 35
-46 53 -76 18 -30 39 -62 46 -70 10 -12 9 -25 -7 -70 -11 -30 -24 -71 -28 -90
-4 -19 -13 -44 -19 -55 -16 -28 -53 -178 -62 -255 -25 -201 -56 -388 -79 -475
-15 -57 -14 -95 3 -95 9 0 16 18 20 50 4 28 11 61 15 73 5 12 14 56 21 97 6
41 16 91 21 110 5 19 11 60 13 90 12 150 52 348 82 402 8 14 14 35 14 45 0 10
15 55 34 100 39 94 50 133 37 133 -5 0 -11 8 -13 18 -3 11 -51 94 -107 186
-105 171 -150 268 -228 486 -24 68 -52 138 -62 155 -34 56 -111 323 -125 430
-2 17 -6 37 -9 45 -3 8 -11 34 -17 58 -7 26 -16 42 -26 42 -13 0 -14 -10 -10
-52z"/>
<path d="M9815 5241 c-3 -6 -4 -15 -1 -19 3 -5 7 -84 11 -178 6 -206 15 -367
20 -397 13 -71 40 -165 53 -184 8 -13 11 -23 8 -23 -4 0 0 -12 8 -27 7 -16 17
-43 21 -62 12 -55 157 -282 219 -341 l55 -54 -34 -33 c-18 -18 -36 -42 -40
-53 -3 -11 -10 -20 -15 -20 -5 0 -14 -16 -20 -35 -6 -19 -15 -35 -19 -35 -4 0
-13 -17 -20 -37 -8 -21 -18 -41 -23 -44 -4 -3 -10 -14 -12 -25 -2 -10 -11 -40
-20 -65 -8 -25 -19 -78 -22 -117 -7 -73 -7 -74 -75 -148 -10 -12 -19 -27 -19
-33 0 -7 -26 -54 -58 -104 -32 -51 -68 -119 -81 -151 -15 -35 -36 -66 -54 -79
-16 -12 -40 -44 -52 -72 -13 -27 -46 -88 -74 -134 -28 -46 -51 -87 -51 -91 0
-4 -11 -12 -24 -19 -13 -7 -33 -29 -44 -50 -11 -20 -31 -46 -44 -57 -40 -36
-147 -96 -166 -92 -9 2 -64 -24 -121 -59 -57 -35 -106 -63 -108 -63 -13 0
-204 -98 -270 -137 -97 -59 -303 -148 -387 -167 -37 -9 -96 -27 -130 -40 -233
-89 -392 -126 -546 -127 -62 0 -114 2 -118 5 -13 14 53 63 248 180 113 69 218
136 231 149 14 12 97 66 185 119 128 78 169 98 204 100 l45 3 65 122 c36 67
72 130 81 140 9 10 19 27 23 38 3 11 19 34 34 51 26 29 39 53 81 143 9 18 33
48 54 66 34 29 50 65 29 65 -23 0 -112 -106 -151 -179 -44 -85 -76 -137 -110
-181 -11 -13 -41 -66 -68 -118 -51 -100 -59 -110 -92 -117 -12 -3 -30 -7 -41
-9 -26 -6 -315 -183 -355 -217 -16 -14 -122 -81 -234 -149 -112 -68 -217 -136
-234 -152 -17 -15 -34 -28 -37 -28 -8 0 -5 -43 3 -57 5 -7 50 -10 139 -7 145
5 295 31 393 69 33 13 75 26 94 30 18 4 53 16 77 26 24 11 78 28 121 39 105
27 311 114 403 170 41 26 120 68 175 94 55 26 111 53 125 61 14 7 39 20 55 28
17 8 53 26 81 41 29 14 57 26 63 26 16 0 172 98 196 124 12 12 29 33 38 48 9
15 23 25 30 22 9 -3 23 17 41 61 16 36 31 65 35 65 4 0 15 15 26 33 10 17 33
50 52 73 18 23 33 45 33 49 0 4 15 33 34 64 19 31 42 76 52 101 10 25 37 74
61 109 24 36 53 84 64 108 12 24 37 61 56 81 32 33 36 45 45 117 11 99 20 127
84 260 44 91 68 129 106 167 14 14 25 28 24 30 -1 2 10 -8 24 -22 13 -14 44
-56 68 -94 l43 -69 -17 -54 c-9 -29 -21 -56 -25 -59 -5 -3 -9 -16 -9 -30 0
-14 -7 -38 -15 -53 -8 -16 -12 -31 -9 -34 3 -3 2 -12 -2 -19 -17 -26 -46 -155
-54 -243 -5 -49 -16 -128 -25 -175 -8 -47 -19 -112 -24 -145 -5 -33 -17 -86
-26 -118 -9 -32 -13 -67 -10 -78 5 -14 -5 -30 -38 -62 -24 -23 -70 -87 -101
-142 -82 -144 -97 -169 -105 -175 -11 -8 -48 -71 -87 -149 -37 -74 -47 -84
-103 -96 -36 -8 -360 -200 -374 -221 -4 -7 -108 -74 -232 -149 -124 -75 -225
-141 -225 -146 0 -5 -11 -15 -25 -21 -27 -12 -34 -38 -10 -38 8 0 32 15 52 33
21 18 130 89 243 157 113 68 212 132 220 141 8 10 87 61 175 115 128 77 169
97 204 100 24 1 47 6 51 11 5 4 31 53 60 108 29 55 65 118 81 139 16 22 29 44
29 48 0 4 16 28 35 53 19 25 48 74 65 108 36 74 46 88 83 112 22 14 27 23 22
42 -3 12 -2 23 3 23 5 0 9 12 9 28 0 15 7 52 15 82 19 65 63 337 74 452 3 33
23 117 55 228 6 19 13 46 16 60 2 14 13 44 24 67 10 24 19 46 19 51 0 5 9 27
20 50 22 44 26 82 10 82 -5 0 -10 6 -10 14 0 8 -48 93 -106 188 -83 135 -120
208 -169 333 -34 88 -68 178 -75 200 -7 22 -24 63 -38 90 -44 89 -111 307
-128 420 -15 95 -29 146 -44 160 -12 11 -20 13 -25 6z"/>
<path d="M5230 4987 c0 -7 6 -21 14 -32 18 -27 56 -143 75 -234 24 -110 14
-351 -18 -436 -12 -33 -29 -80 -37 -105 -8 -25 -30 -92 -49 -150 -19 -58 -41
-132 -49 -165 -21 -83 -83 -227 -103 -243 -12 -8 -14 -15 -7 -22 14 -14 39 -3
53 23 11 21 11 21 5 -3 -17 -72 -22 -128 -18 -198 5 -92 5 -208 -1 -277 -8
-103 21 -353 60 -520 9 -38 20 -97 26 -130 5 -33 25 -91 44 -128 39 -76 42
-89 20 -107 -8 -7 -15 -19 -15 -28 0 -13 -94 -210 -138 -288 -7 -13 -26 -33
-43 -45 l-30 -21 -15 21 c-8 11 -23 21 -33 21 -9 0 -21 4 -26 9 -6 5 -53 13
-105 16 -91 7 -120 16 -120 37 0 6 13 38 29 72 39 83 55 126 48 132 -10 10
-47 -17 -47 -34 0 -10 -9 -34 -20 -55 -11 -21 -28 -57 -37 -80 -9 -23 -27 -50
-40 -60 -13 -10 -23 -25 -23 -34 0 -16 -59 -102 -97 -142 -13 -13 -26 -36 -30
-50 -3 -14 -16 -39 -28 -56 -12 -16 -39 -59 -59 -95 -21 -36 -56 -93 -79 -127
-23 -34 -59 -88 -80 -120 -49 -75 -80 -121 -109 -158 -31 -40 -98 -155 -98
-168 0 -7 -9 -34 -19 -62 -30 -80 -43 -147 -31 -159 13 -13 122 102 180 189
22 33 49 69 60 80 11 12 20 26 20 31 0 6 24 33 53 61 28 27 80 81 114 119 34
38 88 96 120 129 32 34 103 115 158 180 55 66 120 142 145 169 56 60 141 119
154 106 26 -26 129 79 166 170 7 19 24 52 37 72 13 21 23 43 23 50 0 7 7 22
15 32 8 11 15 26 15 33 0 8 9 23 20 35 28 30 25 48 -15 115 -19 32 -40 82 -46
113 -22 110 -40 196 -49 230 -30 114 -49 346 -39 481 4 57 5 124 3 149 -11
152 0 281 29 317 5 7 6 20 3 29 -5 13 -9 14 -22 3 -12 -9 -10 0 7 42 11 30 31
90 44 134 12 44 36 123 53 175 17 52 38 115 46 140 8 25 24 72 37 105 34 93
44 337 19 454 -21 96 -60 216 -81 249 -15 24 -39 30 -39 9z"/>
<path d="M6546 4988 c-10 -6 -33 -27 -50 -46 -17 -20 -38 -43 -46 -52 -13 -13
-48 -63 -136 -193 -12 -18 -41 -50 -65 -73 -24 -22 -60 -60 -79 -84 -19 -24
-66 -75 -105 -115 -38 -39 -86 -91 -105 -115 -19 -24 -43 -51 -52 -59 -10 -9
-18 -20 -18 -25 0 -10 -92 -117 -160 -187 -55 -55 -116 -94 -125 -79 -13 21
-85 -33 -120 -90 -38 -63 -126 -251 -127 -270 0 -3 -9 -17 -19 -32 -25 -35
-25 -37 16 -105 18 -32 39 -80 45 -108 7 -27 18 -77 26 -110 19 -85 55 -260
65 -325 7 -43 10 -203 8 -375 -1 -5 2 -67 4 -136 5 -121 -2 -188 -25 -236 -13
-27 -2 -49 17 -33 12 10 13 7 6 -17 -5 -15 -16 -45 -25 -66 -9 -20 -23 -67
-32 -103 -8 -37 -26 -101 -40 -143 -14 -42 -30 -98 -36 -126 -6 -27 -18 -66
-28 -85 -27 -53 -40 -132 -45 -270 -4 -101 -1 -142 15 -219 37 -170 90 -302
114 -282 10 8 7 23 -15 69 -16 32 -40 103 -54 159 -42 168 -35 434 15 533 10
19 21 51 25 70 3 19 22 85 40 145 19 61 37 126 40 145 7 34 38 122 72 203 9
21 22 41 29 45 18 10 1 34 -18 27 -9 -4 -20 -16 -26 -28 -10 -21 -11 -21 -11
-1 -1 11 3 24 8 30 13 12 14 57 8 364 -5 272 -10 341 -33 433 -8 32 -12 62 -9
68 4 5 2 15 -3 22 -5 7 -13 28 -16 47 -4 19 -13 62 -21 95 -8 33 -17 77 -20
98 -3 20 -22 67 -42 104 -34 65 -35 69 -20 98 8 16 25 57 38 90 12 33 28 67
36 76 7 8 13 22 14 30 0 8 11 32 24 54 13 22 28 50 34 61 5 12 24 32 42 44 29
21 32 22 41 6 14 -25 68 -43 172 -57 78 -10 97 -16 102 -31 3 -11 -10 -55 -31
-103 -41 -97 -44 -125 -7 -100 12 9 22 25 22 37 0 11 10 39 21 62 37 72 39 76
39 87 0 6 11 20 25 31 14 11 25 26 25 34 0 17 46 87 90 137 15 18 30 45 34 61
4 16 18 43 32 61 13 17 24 36 24 42 0 5 24 46 53 89 29 43 76 117 105 164 54
86 87 136 119 179 63 83 101 170 133 301 20 79 17 95 -14 78z"/>
<path d="M5919 3530 c-13 -7 -14 -19 -7 -67 5 -32 13 -96 19 -143 5 -47 15
-112 21 -145 6 -33 13 -105 14 -160 4 -104 14 -189 33 -265 27 -107 35 -130
69 -200 12 -25 22 -49 22 -55 0 -19 105 -185 118 -185 21 0 14 19 -38 105 -27
46 -50 87 -50 91 0 5 -10 29 -22 54 -61 126 -97 298 -99 469 0 42 -7 103 -15
135 -9 33 -13 68 -11 78 5 19 -10 151 -20 178 -4 8 -7 37 -9 63 -3 56 -4 58
-25 47z"/>
<path d="M4404 3485 c-3 -8 17 -52 45 -98 28 -45 51 -87 51 -92 0 -6 10 -30
22 -55 31 -64 35 -77 53 -150 28 -108 42 -221 40 -305 -1 -44 4 -105 11 -135
7 -30 12 -80 12 -110 0 -30 6 -86 12 -125 7 -38 12 -87 11 -107 -2 -31 2 -38
17 -38 17 0 20 7 20 53 0 28 -4 60 -9 69 -5 10 -12 59 -15 110 -3 51 -10 113
-15 138 -6 25 -10 84 -10 133 2 138 -39 353 -89 462 -15 33 -30 69 -34 79 -8
25 -106 186 -112 186 -3 0 -7 -7 -10 -15z"/>
<path d="M9345 1370 c-3 -5 5 -29 19 -53 30 -51 31 -61 10 -123 -19 -57 -109
-249 -126 -270 -68 -81 -126 -128 -243 -196 -71 -41 -148 -81 -170 -87 -58
-18 -148 -54 -159 -63 -6 -4 -19 -8 -30 -8 -12 0 -30 -7 -40 -15 -10 -8 -49
-24 -85 -36 -36 -12 -75 -28 -86 -34 -11 -7 -49 -23 -85 -35 -36 -13 -70 -27
-75 -31 -6 -5 -30 -11 -53 -15 -23 -4 -45 -11 -48 -15 -3 -5 -13 -9 -24 -9
-10 0 -38 -11 -61 -25 -24 -14 -49 -25 -56 -25 -7 0 -56 -26 -110 -57 -74 -44
-124 -83 -203 -162 -85 -85 -101 -105 -86 -109 14 -3 37 14 81 59 33 35 79 80
101 100 39 35 207 139 225 139 5 0 35 12 66 27 78 35 93 41 128 48 17 3 80 26
140 51 61 25 133 54 160 64 28 9 68 25 90 35 22 10 49 21 60 26 11 4 38 15 60
24 22 9 62 24 90 32 76 23 313 166 367 220 89 91 77 72 147 226 34 73 57 134
76 202 3 12 -57 125 -67 125 -4 0 -10 -4 -13 -10z"/>
</g>
</svg>
