<?xml version="1.0" standalone="no"?>
<!DOCTYPE svg PUBLIC "-//W3C//DTD SVG 20010904//EN"
 "http://www.w3.org/TR/2001/REC-SVG-20010904/DTD/svg10.dtd">
<svg version="1.0" xmlns="http://www.w3.org/2000/svg"
 width="661.000000pt" height="720.000000pt" viewBox="0 0 661.000000 720.000000"
 preserveAspectRatio="xMidYMid meet">
<metadata>
Created by potrace 1.16, written by Peter Selinger 2001-2019
</metadata>
<g transform="translate(0.000000,720.000000) scale(0.100000,-0.100000)"
fill="#000000" stroke="none">
<path d="M2137 5723 c-13 -13 -7 -24 21 -35 15 -7 45 -23 67 -37 22 -14 76
-43 120 -66 44 -23 132 -69 196 -103 108 -57 173 -82 274 -102 22 -5 74 -16
115 -24 97 -21 333 -22 381 -2 19 7 55 17 82 20 46 7 47 7 47 -21 0 -15 14
-53 30 -83 16 -30 35 -67 41 -82 6 -16 14 -28 18 -28 4 0 16 -17 27 -37 23
-44 131 -154 185 -189 24 -15 39 -32 39 -44 0 -21 27 -86 46 -110 7 -8 31 -53
55 -100 24 -47 62 -113 86 -148 27 -40 43 -74 43 -94 0 -19 12 -45 32 -70 17
-22 47 -72 66 -112 19 -39 43 -82 53 -95 11 -13 19 -37 19 -54 0 -16 10 -46
22 -66 18 -29 23 -54 26 -134 3 -57 0 -108 -6 -120 -6 -12 -13 -96 -17 -187
-18 -517 -34 -676 -79 -818 -14 -46 -26 -94 -26 -107 0 -31 -33 -171 -71 -305
-31 -107 -110 -268 -155 -317 -13 -14 -25 -24 -25 -22 -2 4 -17 484 -25 794
-5 196 -4 207 27 267 8 15 -7 55 -34 92 -47 65 -117 193 -117 214 0 6 -4 12
-9 12 -4 0 -18 26 -29 58 -12 31 -39 81 -61 109 -25 33 -42 68 -46 95 -10 65
-15 78 -31 78 -8 0 -14 7 -14 15 0 8 -6 15 -12 15 -7 0 -35 22 -63 50 -62 61
-184 164 -295 250 -72 55 -153 132 -284 270 -13 14 -48 57 -76 95 -29 39 -59
75 -67 82 -11 8 -87 12 -258 13 -252 1 -323 8 -558 54 -71 15 -132 24 -137 21
-20 -12 -352 73 -445 114 -44 20 -126 41 -135 36 -18 -11 -11 -25 18 -37 15
-7 45 -23 67 -37 22 -14 85 -48 140 -76 55 -28 143 -74 195 -102 52 -27 115
-55 140 -62 25 -7 55 -17 68 -22 13 -5 38 -9 55 -9 18 0 37 -4 43 -8 34 -31
380 -45 445 -18 19 7 55 17 80 20 l46 7 6 -41 c3 -23 12 -49 21 -59 9 -10 16
-24 16 -33 0 -8 9 -23 20 -33 11 -10 20 -22 20 -27 0 -5 11 -24 25 -42 14 -18
25 -38 25 -44 0 -15 128 -140 172 -168 25 -16 38 -32 38 -47 0 -12 7 -31 15
-41 8 -11 15 -26 15 -35 0 -8 6 -22 14 -30 8 -9 37 -59 64 -111 26 -52 65
-117 85 -143 27 -35 37 -59 37 -84 0 -26 9 -47 34 -77 18 -23 48 -73 66 -111
18 -39 41 -81 51 -94 11 -13 19 -36 19 -52 0 -15 11 -49 25 -75 22 -41 25 -60
25 -145 0 -54 -4 -100 -9 -103 -4 -3 -11 -83 -15 -178 -14 -381 -19 -488 -20
-488 -16 1 -168 74 -221 107 -36 22 -82 41 -116 48 -19 4 -41 13 -49 21 -23
20 -146 74 -168 74 -11 0 -30 8 -43 19 -13 10 -34 21 -46 25 -18 6 -23 3 -23
-11 0 -12 16 -26 48 -41 26 -12 52 -22 58 -22 14 0 156 -65 167 -77 5 -4 36
-17 70 -29 62 -20 98 -38 164 -81 18 -13 38 -23 44 -23 6 0 33 -10 61 -22 l50
-21 -6 -41 c-3 -23 -8 -68 -12 -101 -3 -33 -19 -102 -35 -153 -16 -51 -29
-110 -29 -132 0 -45 -9 -49 -48 -21 -15 10 -49 29 -77 43 -27 14 -59 30 -70
36 -43 23 -112 52 -126 52 -8 0 -36 12 -64 25 -27 14 -56 25 -63 25 -17 0
-131 37 -197 63 -30 12 -83 22 -133 25 -72 4 -84 7 -94 26 -6 11 -27 41 -48
66 -121 149 -204 320 -155 320 23 0 84 46 116 87 16 21 36 46 44 55 7 9 18 26
25 37 21 40 57 19 103 -60 14 -26 33 -49 42 -53 8 -3 15 -12 15 -21 0 -8 7
-15 15 -15 20 0 19 44 -1 61 -9 8 -27 30 -39 49 -12 19 -35 49 -51 66 -16 18
-30 44 -31 60 -1 15 -9 32 -18 36 -8 5 -15 13 -15 18 0 5 -13 38 -30 73 -16
36 -30 71 -30 78 0 7 -9 22 -20 34 -26 27 -22 21 -221 406 -19 36 -44 88 -55
115 -39 89 -44 99 -69 143 -27 47 -44 68 -138 163 -85 85 -98 63 -48 -77 32
-92 69 -173 82 -181 5 -3 9 -16 9 -28 0 -13 7 -29 15 -36 8 -7 15 -21 15 -31
0 -24 25 -121 49 -189 11 -30 29 -89 41 -130 12 -41 28 -95 36 -120 9 -25 21
-64 28 -87 6 -24 17 -48 24 -55 7 -7 12 -22 12 -34 0 -13 4 -25 9 -28 5 -3 11
-16 14 -28 3 -13 13 -48 22 -78 24 -81 34 -200 18 -200 -9 0 -13 -15 -13 -48
0 -64 26 -112 181 -331 17 -24 35 -54 39 -66 8 -21 17 -23 102 -27 61 -3 110
-11 143 -25 28 -11 84 -30 125 -43 89 -27 189 -64 245 -91 22 -10 46 -19 53
-19 8 0 26 -8 40 -19 15 -10 43 -26 62 -35 19 -9 44 -22 55 -29 11 -7 28 -17
37 -22 17 -10 17 -16 3 -90 -24 -123 -78 -272 -134 -366 -28 -47 -57 -92 -66
-99 -20 -17 -19 -40 3 -40 30 0 138 197 182 330 21 63 41 138 45 165 9 67 12
69 48 46 18 -10 68 -38 112 -61 44 -23 87 -48 96 -56 8 -8 20 -14 24 -14 14 0
95 -83 95 -97 0 -18 17 -16 28 3 7 13 16 8 47 -32 21 -27 66 -76 99 -109 34
-33 105 -110 159 -170 136 -153 175 -192 232 -230 124 -82 195 -118 292 -148
l103 -32 0 -81 c0 -101 20 -209 65 -350 36 -115 84 -204 110 -204 21 0 19 9
-15 60 -60 89 -130 356 -130 495 l0 73 65 -6 c53 -4 65 -2 65 10 0 11 -16 17
-61 21 -33 3 -62 7 -64 9 -5 5 11 131 23 183 25 104 42 198 52 277 6 48 13 93
15 100 3 7 14 76 25 153 11 77 24 156 30 175 13 47 13 347 -1 407 -6 27 -17
61 -25 76 -8 16 -14 33 -14 38 0 14 -127 198 -176 257 l-45 52 -70 0 c-55 0
-69 -3 -69 -15 0 -12 13 -15 59 -15 58 0 60 -1 101 -47 48 -55 170 -228 170
-242 0 -5 6 -22 14 -38 8 -15 19 -49 25 -76 14 -59 15 -356 1 -391 -11 -29
-31 -150 -69 -411 -13 -90 -38 -227 -52 -285 -5 -25 -14 -76 -19 -114 -5 -37
-11 -70 -13 -73 -3 -2 -48 10 -101 27 -119 38 -307 151 -369 222 -23 27 -118
131 -212 232 -187 203 -243 270 -251 304 -4 12 -12 22 -20 22 -17 0 -19 -41
-2 -58 7 -7 9 -12 6 -12 -4 0 -26 18 -50 41 -39 37 -75 58 -218 130 -82 41
-88 50 -78 122 4 34 19 96 32 137 13 41 29 118 36 170 6 52 13 96 15 98 2 3
33 -3 67 -12 119 -32 143 -36 291 -43 140 -6 147 -5 147 13 0 18 -9 19 -138
20 -76 0 -152 5 -168 11 -16 6 -67 19 -113 29 l-84 18 6 175 c3 97 13 264 22
371 20 229 16 380 -8 405 -19 19 -22 42 -6 47 6 2 -4 26 -24 55 -35 53 -90
160 -102 201 -8 26 -49 97 -104 181 -20 30 -57 94 -82 143 -26 48 -53 95 -60
104 -14 17 -37 72 -46 112 -3 12 -41 52 -84 88 -68 57 -141 143 -186 219 -34
57 -73 144 -73 162 0 29 21 36 126 42 l91 6 34 -44 c38 -50 66 -79 193 -210
50 -50 93 -91 98 -91 4 0 30 -20 58 -45 28 -25 54 -45 58 -45 5 0 26 -17 48
-38 21 -21 55 -49 74 -64 19 -14 68 -58 107 -97 40 -39 79 -71 86 -71 17 0 34
-34 40 -81 3 -20 29 -78 59 -130 30 -52 73 -133 96 -181 23 -48 63 -119 88
-159 l47 -72 -13 -66 c-9 -46 -10 -128 -6 -276 16 -574 22 -764 26 -767 34
-21 54 -28 61 -21 5 5 38 60 74 123 67 118 115 245 140 374 7 39 18 84 24 99
6 16 11 44 11 62 0 19 12 71 26 117 35 111 53 243 64 478 5 107 16 287 25 400
20 241 17 360 -11 409 -14 25 -16 35 -6 38 9 3 2 20 -23 54 -19 27 -35 52 -35
56 0 24 -126 271 -172 335 -20 29 -58 94 -83 143 -26 50 -53 97 -61 106 -8 8
-14 22 -14 30 0 8 -7 23 -15 33 -8 11 -15 30 -15 43 0 16 -18 37 -62 71 -34
26 -69 54 -77 63 -29 29 -71 81 -71 87 0 3 -11 20 -25 38 -14 18 -25 37 -25
42 0 5 -7 15 -16 22 -17 15 -39 62 -59 127 -13 39 -12 41 8 49 12 4 63 10 112
13 l90 6 32 -40 c87 -107 255 -281 310 -320 72 -52 158 -118 168 -131 6 -7 38
-35 73 -63 34 -27 83 -72 108 -100 25 -28 54 -51 63 -51 21 0 37 -31 45 -84 3
-22 21 -65 39 -95 19 -31 44 -76 57 -101 12 -25 26 -52 31 -60 5 -8 22 -43 39
-78 16 -35 50 -95 76 -134 l47 -70 -13 -69 c-10 -51 -11 -130 -6 -316 6 -224
23 -724 25 -730 1 -2 7 -3 14 -3 10 0 12 54 9 263 -1 144 -7 289 -12 323 -12
76 -13 441 -1 448 5 3 12 22 16 42 5 30 1 45 -24 86 -17 27 -31 52 -31 55 0 4
-6 14 -14 22 -18 20 -90 158 -120 231 -13 31 -39 77 -58 102 -22 29 -39 64
-43 90 -10 68 -15 78 -36 78 -10 0 -19 6 -20 13 -1 19 -201 194 -383 334 -53
41 -206 192 -271 268 -22 25 -50 56 -62 69 -13 13 -23 26 -23 30 0 4 -14 22
-31 41 l-31 34 -242 1 c-246 1 -346 10 -545 51 -51 10 -110 19 -130 19 -78 0
-374 76 -454 116 -16 8 -46 17 -68 20 -22 4 -42 11 -45 15 -6 11 -28 12 -37 2z"/>
<path d="M5210 3325 c0 -12 13 -15 59 -15 60 0 60 0 105 -52 102 -120 181
-254 204 -351 15 -58 16 -339 2 -387 -10 -34 -33 -166 -50 -285 -31 -213 -57
-360 -75 -425 -21 -75 -31 -334 -16 -430 17 -109 76 -292 125 -384 24 -45 45
-91 48 -103 7 -24 38 -32 38 -10 0 8 -22 57 -50 110 -53 104 -113 282 -129
387 -19 117 -11 307 18 430 17 70 31 147 46 245 35 236 66 423 75 455 13 47
13 347 -1 407 -6 27 -17 61 -25 76 -8 16 -14 33 -14 39 0 6 -12 27 -27 47 -16
19 -45 62 -65 95 -20 32 -57 83 -83 112 l-46 54 -70 0 c-55 0 -69 -3 -69 -15z"/>
<path d="M677 2783 c-4 -3 -7 -14 -7 -23 0 -32 51 -174 86 -240 19 -35 34 -71
34 -79 0 -8 6 -22 14 -30 8 -9 21 -51 30 -94 8 -42 22 -90 29 -105 8 -15 17
-40 21 -57 18 -79 89 -304 107 -337 15 -28 59 -165 80 -247 23 -91 25 -141 4
-141 -11 0 -15 -12 -15 -45 0 -53 27 -111 103 -221 29 -42 60 -87 69 -101 9
-14 20 -29 25 -32 5 -3 15 -21 22 -38 l13 -33 75 0 c62 0 100 -8 217 -46 149
-49 248 -85 306 -110 19 -9 43 -18 53 -20 9 -1 30 -12 45 -22 15 -11 43 -27
62 -36 51 -24 145 -79 167 -97 18 -17 34 -25 132 -75 82 -41 136 -80 180 -131
32 -35 42 -42 47 -30 3 9 2 22 -2 29 -11 20 8 -1 51 -57 22 -27 66 -77 100
-110 33 -33 101 -104 150 -158 50 -53 98 -97 108 -97 27 0 17 12 -151 189 -85
88 -168 179 -185 202 -57 75 -76 104 -76 117 -1 6 -8 12 -16 12 -21 0 -19 -39
3 -64 9 -11 -10 3 -43 31 -57 48 -79 61 -215 129 -30 15 -64 35 -75 44 -21 19
-64 45 -152 91 -126 67 -167 86 -248 114 -27 10 -54 22 -60 26 -5 5 -16 9 -25
9 -10 0 -78 20 -152 45 -106 35 -150 45 -201 45 -59 0 -68 3 -78 23 -7 12 -32
47 -57 77 -24 30 -47 62 -50 70 -3 8 -17 31 -32 50 -62 81 -100 190 -65 190
36 0 145 105 184 178 17 31 46 27 74 -10 107 -148 117 -158 117 -117 0 12 -12
36 -27 54 -16 19 -43 54 -62 79 -18 25 -37 46 -41 46 -4 0 -5 11 -3 23 3 14
-2 31 -11 39 -18 19 -71 125 -80 165 -4 15 -16 37 -27 49 -21 23 -42 60 -116
204 -115 226 -146 288 -166 330 -68 150 -82 171 -198 292 -57 60 -61 63 -72
51z"/>
<path d="M1603 1485 c-3 -9 -4 -17 -2 -18 59 -33 91 -47 105 -47 9 0 38 -11
66 -25 27 -14 55 -25 61 -25 6 0 20 -8 31 -18 12 -11 48 -27 80 -37 33 -10 74
-27 92 -39 89 -56 106 -66 120 -66 8 0 34 -10 57 -22 56 -28 231 -77 321 -88
39 -5 115 -10 169 -10 90 0 97 1 97 19 0 19 -7 20 -107 19 -132 -2 -165 3
-333 44 -47 11 -106 31 -132 44 -26 13 -52 24 -58 24 -6 0 -43 20 -83 44 -40
24 -101 53 -136 65 -36 12 -72 27 -80 34 -16 14 -125 60 -171 73 -14 4 -36 15
-49 25 -29 23 -40 24 -48 4z"/>
</g>
</svg>
