<svg width="777" height="480" xmlns="http://www.w3.org/2000/svg" xmlns:se="http://svg-edit.googlecode.com" xmlns:xlink="http://www.w3.org/1999/xlink" xmlns:dc="http://purl.org/dc/elements/1.1/" xmlns:cc="http://creativecommons.org/ns#" xmlns:rdf="http://www.w3.org/1999/02/22-rdf-syntax-ns#" xmlns:inkscape="http://www.inkscape.org/namespaces/inkscape" style="">
                                    <title>my vector image</title>
                                    <!-- Created with Vector Paint - http://www.vectorpaint.yaks.com/ https://chrome.google.com/webstore/detail/hnbpdiengicdefcjecjbnjnoifekhgdo -->
                                    <rect id="backgroundrect" width="100%" height="100%" x="0" y="0" fill="#FFFFFF" stroke="none"/>
                                <g style="" class="currentLayer"><title>Layer 1</title><g class="" id="svg_1" transform="rotate(-43.6085, 528.289, 262.545)"><polyline fill="none" stroke="#222222" style="color: rgb(0, 0, 0);" stroke-width="2" stroke-linejoin="round" stroke-dashoffset="" fill-rule="nonzero" marker-start="" marker-mid="" marker-end="" id="svg_3" points="564.1999816894531,224.66665649414062 564.1999816894531,225.4242401123047 564.1999816894531,226.18182373046875 564.1999816894531,226.93939208984375 564.1999816894531,228.45452880859375 564.1999816894531,229.96969604492188 564.1999816894531,233 564.1999816894531,234.51513671875 564.1999816894531,236.03030395507812 564.1999816894531,239.06060791015625 564.1999816894531,240.57574462890625 563.4424133300781,242.84848022460938 563.4424133300781,245.1212158203125 563.4424133300781,247.39395141601562 563.4424133300781,248.90908813476562 562.684814453125,251.93939208984375 562.684814453125,254.21212768554688 562.684814453125,257.242431640625 562.684814453125,260.2727355957031 562.684814453125,265.57574462890625 561.92724609375,270.1212158203125 561.169677734375,276.18182373046875 560.412109375,282.242431640625 558.8969421386719,286.7878723144531 557.3818054199219,292.0909118652344 556.6242065429688,298.1515197753906 555.1090698242188,302.69696044921875 554.3515014648438,308 552.8363342285156,313.30303955078125 550.5635986328125,320.1212158203125 549.0484619140625,323.9090881347656 546.7757263183594,327.69696044921875 545.2605895996094,330.7272644042969 543.7454223632812,333 542.9878540039062,334.51513671875 542.2302856445312,334.51513671875 542.2302856445312,335.2727355957031 542.2302856445312,336.0303039550781 541.4727172851562,336.0303039550781 541.4727172851562,336.0303039550781 540.7151489257812,336.0303039550781 " class=""/><polyline fill="none" stroke="#222222" style="color: rgb(0, 0, 0);" stroke-width="2" stroke-linejoin="round" stroke-dashoffset="" fill-rule="nonzero" marker-start="" marker-mid="" marker-end="" id="svg_4" points="596.7757263183594,211.03030395507812 596.7757263183594,211.03030395507812 596.7757263183594,211.78787231445312 596.7757263183594,212.54544067382812 596.7757263183594,213.3030242919922 596.7757263183594,214.06060791015625 596.7757263183594,215.57574462890625 596.7757263183594,216.3333282470703 596.7757263183594,217.84848022460938 596.7757263183594,219.36363220214844 596.7757263183594,221.6363525390625 596.7757263183594,222.39393615722656 596.7757263183594,224.66665649414062 596.7757263183594,226.93939208984375 596.7757263183594,228.45452880859375 596.7757263183594,229.96969604492188 596.7757263183594,232.242431640625 596.7757263183594,233 596.7757263183594,234.51513671875 596.7757263183594,236.03030395507812 596.7757263183594,236.78787231445312 597.5332946777344,238.30303955078125 597.5332946777344,239.81817626953125 597.5332946777344,241.33334350585938 597.5332946777344,243.60604858398438 597.5332946777344,245.1212158203125 597.5332946777344,246.6363525390625 597.5332946777344,248.15151977539062 597.5332946777344,249.66665649414062 597.5332946777344,251.18182373046875 597.5332946777344,251.93939208984375 597.5332946777344,254.21212768554688 597.5332946777344,255.72726440429688 597.5332946777344,257.242431640625 597.5332946777344,258 597.5332946777344,258.757568359375 597.5332946777344,260.2727355957031 597.5332946777344,261.7878723144531 597.5332946777344,263.30303955078125 597.5332946777344,264.81817626953125 597.5332946777344,266.3333435058594 597.5332946777344,267.0909118652344 597.5332946777344,268.6060485839844 597.5332946777344,270.1212158203125 597.5332946777344,270.8787841796875 598.2908935546875,272.3939514160156 598.2908935546875,273.1515197753906 598.2908935546875,273.9090881347656 598.2908935546875,274.6666564941406 598.2908935546875,275.4242248535156 598.2908935546875,276.18182373046875 " class=""/><polyline fill="none" stroke="#222222" style="color: rgb(0, 0, 0);" stroke-width="2" stroke-linejoin="round" stroke-dashoffset="" fill-rule="nonzero" marker-start="" marker-mid="" marker-end="" id="svg_5" points="585.412109375,179.21212768554688 585.412109375,179.21212768554688 585.412109375,179.96969604492188 585.412109375,180.72726440429688 586.169677734375,182.242431640625 586.92724609375,183.757568359375 587.684814453125,184.51515197753906 588.4424133300781,186.78787231445312 588.4424133300781,187.5454559326172 589.1999816894531,188.30303955078125 589.9575500488281,189.06060791015625 589.9575500488281,189.81817626953125 590.7151184082031,190.57574462890625 590.7151184082031,191.3333282470703 590.7151184082031,192.09091186523438 590.7151184082031,192.09091186523438 591.4726867675781,192.84848022460938 591.4726867675781,193.60604858398438 592.2302856445312,194.36363220214844 592.2302856445312,194.36363220214844 592.2302856445312,195.1212158203125 592.2302856445312,195.8787841796875 " class=""/><polyline fill="none" stroke="#222222" style="color: rgb(0, 0, 0);" stroke-width="2" stroke-linejoin="round" stroke-dashoffset="" fill-rule="nonzero" marker-start="" marker-mid="" marker-end="" id="svg_6" points="552.8363342285156,181.48484802246094 552.8363342285156,181.48484802246094 552.8363342285156,182.242431640625 552.8363342285156,183 552.8363342285156,183.757568359375 552.8363342285156,185.27273559570312 553.5939025878906,186.03030395507812 554.3515014648438,186.78787231445312 554.3515014648438,187.5454559326172 555.1090698242188,187.5454559326172 555.1090698242188,188.30303955078125 555.8666381835938,189.06060791015625 555.8666381835938,189.06060791015625 556.6242065429688,189.81817626953125 556.6242065429688,190.57574462890625 556.6242065429688,190.57574462890625 557.3818054199219,191.3333282470703 557.3818054199219,192.09091186523438 557.3818054199219,192.09091186523438 558.1393737792969,192.84848022460938 558.1393737792969,192.84848022460938 558.1393737792969,192.84848022460938 558.1393737792969,193.60604858398438 558.8969421386719,194.36363220214844 558.8969421386719,194.36363220214844 558.8969421386719,195.1212158203125 558.8969421386719,195.1212158203125 558.8969421386719,195.1212158203125 558.8969421386719,195.1212158203125 558.8969421386719,195.8787841796875 559.6545104980469,195.8787841796875 559.6545104980469,197.39393615722656 560.412109375,198.15151977539062 560.412109375,198.15151977539062 560.412109375,198.15151977539062 560.412109375,198.90908813476562 560.412109375,198.90908813476562 560.412109375,198.90908813476562 561.169677734375,199.66665649414062 561.92724609375,200.4242401123047 561.92724609375,200.4242401123047 561.92724609375,201.18182373046875 562.684814453125,201.93939208984375 563.4424133300781,202.69696044921875 563.4424133300781,203.4545440673828 564.1999816894531,204.21212768554688 564.1999816894531,204.96969604492188 564.1999816894531,204.96969604492188 564.1999816894531,204.96969604492188 " class=""/><polyline fill="none" stroke="#222222" style="color: rgb(0, 0, 0);" stroke-width="2" stroke-linejoin="round" stroke-dashoffset="" fill-rule="nonzero" marker-start="" marker-mid="" marker-end="" id="svg_7" points="579.3515014648438,165.57574462890625 579.3515014648438,165.57574462890625 578.5939025878906,165.57574462890625 577.8363342285156,165.57574462890625 576.3211975097656,164.06060791015625 574.8060302734375,162.5454559326172 573.2908935546875,161.03030395507812 572.5332946777344,159.51515197753906 570.2605895996094,158 569.5029907226562,157.242431640625 568.7454223632812,156.48484802246094 567.2302856445312,154.96969604492188 564.1999816894531,152.69696807861328 563.4424133300781,151.18181610107422 561.92724609375,150.4242401123047 560.412109375,148.90908813476562 559.6545104980469,148.1515121459961 558.1393737792969,147.39393615722656 557.3818054199219,146.63636016845703 556.6242065429688,145.8787841796875 555.1090698242188,144.36363220214844 554.3515014648438,143.60606384277344 552.8363342285156,142.84848022460938 552.0787658691406,142.09091186523438 550.5635986328125,141.3333282470703 549.8060302734375,139.81817626953125 549.0484619140625,139.06060791015625 548.2908935546875,138.3030242919922 547.5333251953125,137.5454559326172 546.0181579589844,136.03030395507812 545.2605895996094,135.27272033691406 544.5030212402344,134.51515197753906 543.7454223632812,133 542.2302856445312,132.24242401123047 541.4727172851562,130.7272720336914 540.7151489257812,129.21212005615234 539.1999816894531,128.4545440673828 538.4424133300781,127.69696807861328 537.6848449707031,126.18181610107422 536.92724609375,125.42424011230469 536.169677734375,123.90908813476562 535.412109375,123.1515121459961 534.654541015625,122.39393615722656 533.8969421386719,121.63636016845703 533.8969421386719,120.8787841796875 533.1393737792969,120.12120819091797 533.1393737792969,120.12120819091797 532.3818054199219,119.36363220214844 532.3818054199219,119.36363220214844 532.3818054199219,119.36363220214844 532.3818054199219,118.60606384277344 531.6242370605469,118.60606384277344 531.6242370605469,118.60606384277344 531.6242370605469,117.84848022460938 531.6242370605469,117.84848022460938 530.8666381835938,117.84848022460938 530.8666381835938,117.84848022460938 530.8666381835938,117.84848022460938 530.8666381835938,117.84848022460938 530.8666381835938,117.09091186523438 530.8666381835938,117.84848022460938 531.6242370605469,119.36363220214844 531.6242370605469,121.63636016845703 " class=""/><polyline fill="none" stroke="#222222" style="color: rgb(0, 0, 0);" stroke-width="2" stroke-linejoin="round" stroke-dashoffset="" fill-rule="nonzero" marker-start="" marker-mid="" marker-end="" id="svg_9" points="518.7454223632812,123.1515121459961 518.7454223632812,123.90908813476562 518.7454223632812,123.90908813476562 518.7454223632812,125.42424011230469 518.7454223632812,126.18181610107422 519.5030212402344,126.93939208984375 519.5030212402344,128.4545440673828 520.2605895996094,129.21212005615234 521.0181579589844,130.7272720336914 521.0181579589844,131.48484802246094 521.7757263183594,133 522.5333251953125,133.75757598876953 523.2908935546875,134.51515197753906 523.2908935546875,136.03030395507812 524.0484619140625,136.78787231445312 524.8060302734375,137.5454559326172 525.5636291503906,139.06060791015625 526.3211975097656,139.81817626953125 526.3211975097656,141.3333282470703 527.8363342285156,142.09091186523438 528.5939331054688,143.60606384277344 530.1090698242188,145.1212158203125 530.8666381835938,146.63636016845703 532.3818054199219,147.39393615722656 533.1393737792969,148.1515121459961 534.654541015625,149.66666412353516 535.412109375,150.4242401123047 536.92724609375,151.18181610107422 537.6848449707031,151.93939208984375 538.4424133300781,152.69696807861328 538.4424133300781,152.69696807861328 539.1999816894531,153.4545440673828 539.1999816894531,153.4545440673828 539.1999816894531,153.4545440673828 539.1999816894531,153.4545440673828 539.1999816894531,153.4545440673828 539.1999816894531,154.21212768554688 539.1999816894531,155.72726440429688 539.9575500488281,157.242431640625 540.7151489257812,158.757568359375 540.7151489257812,160.27272033691406 542.2302856445312,161.78787231445312 542.9878540039062,163.30303955078125 543.7454223632812,164.81817626953125 546.0181579589844,169.36363220214844 547.5333251953125,173.15151977539062 549.8060302734375,176.18182373046875 551.3211975097656,178.4545440673828 552.8363342285156,181.48484802246094 554.3515014648438,184.51515197753906 555.8666381835938,186.78787231445312 556.6242065429688,189.06060791015625 557.3818054199219,192.09091186523438 558.1393737792969,193.60604858398438 " class=""/><polyline fill="none" stroke="#222222" style="color: rgb(0, 0, 0);" stroke-width="2" stroke-linejoin="round" stroke-dashoffset="" fill-rule="nonzero" marker-start="" marker-mid="" marker-end="" id="svg_11" points="440.71514892578125,301.93939208984375 439.9575500488281,301.93939208984375 " class=""/><polyline fill="none" stroke="#222222" style="color: rgb(0, 0, 0);" stroke-width="2" stroke-linejoin="round" stroke-dashoffset="" fill-rule="nonzero" marker-start="" marker-mid="" marker-end="" id="svg_16" points="520.2605895996094,369.3636169433594 520.2605895996094,369.3636169433594 520.2605895996094,369.3636169433594 520.2605895996094,369.3636169433594 520.2605895996094,371.6363525390625 521.0181579589844,372.3939208984375 521.7757263183594,373.9090881347656 523.2908935546875,376.1817932128906 524.8060302734375,377.69696044921875 525.5636291503906,379.21209716796875 527.8363342285156,382.2424011230469 529.3515014648438,383.757568359375 531.6242370605469,386.0303039550781 533.8969421386719,388.3030090332031 535.412109375,390.57574462890625 537.6848449707031,392.8484802246094 539.1999816894531,395.1211853027344 540.7151489257812,396.6363525390625 541.4727172851562,397.3939208984375 544.5030212402344,400.4242248535156 546.7757263183594,404.21209716796875 547.5333251953125,404.9696960449219 549.8060302734375,407.2424011230469 551.3211975097656,408.757568359375 553.5939025878906,410.272705078125 556.6242065429688,412.5454406738281 560.412109375,414.81817626953125 564.9575500488281,417.8484802246094 569.5029907226562,419.3636169433594 573.2908935546875,420.8787841796875 579.3515014648438,422.3939208984375 583.1393737792969,423.1514892578125 585.412109375,423.1514892578125 586.92724609375,423.1514892578125 " class=""/><polyline fill="none" stroke="#222222" style="color: rgb(0, 0, 0);" stroke-width="2" stroke-linejoin="round" stroke-dashoffset="" fill-rule="nonzero" marker-start="" marker-mid="" marker-end="" id="svg_17" points="604.3515014648438,253.45452880859375 604.3515014648438,253.45452880859375 " class=""/><polyline fill="none" stroke="#222222" style="color: rgb(0, 0, 0);" stroke-width="2" stroke-linejoin="round" stroke-dashoffset="" fill-rule="nonzero" marker-start="" marker-mid="" marker-end="" id="svg_20" points="535.412109375,332.242431640625 535.412109375,332.242431640625 534.654541015625,332.242431640625 533.1393737792969,332.242431640625 531.6242370605469,332.242431640625 530.8666381835938,332.242431640625 529.3515014648438,332.242431640625 527.8363342285156,332.242431640625 527.0787658691406,332.242431640625 525.5636291503906,332.242431640625 524.0484619140625,332.242431640625 522.5333251953125,332.242431640625 521.0181579589844,331.4848327636719 519.5030212402344,331.4848327636719 518.7454528808594,331.4848327636719 517.2302856445312,331.4848327636719 515.7151489257812,330.7272644042969 514.1999816894531,330.7272644042969 513.4424133300781,330.7272644042969 511.92724609375,329.9696960449219 510.412109375,329.9696960449219 509.654541015625,329.2121276855469 508.1393737792969,329.2121276855469 506.6242370605469,328.45452880859375 505.86663818359375,328.45452880859375 504.35150146484375,327.69696044921875 503.59393310546875,327.69696044921875 502.0787658691406,326.93939208984375 500.5636291503906,326.18182373046875 499.0484619140625,325.4242248535156 497.5333251953125,324.6666564941406 496.0181579589844,324.6666564941406 495.2605895996094,323.9090881347656 494.5030212402344,323.1515197753906 492.98785400390625,322.3939208984375 492.98785400390625,322.3939208984375 491.47271728515625,321.6363525390625 490.71514892578125,320.8787841796875 489.9575500488281,320.8787841796875 489.1999816894531,320.1212158203125 488.4424133300781,319.3636474609375 486.92724609375,318.6060485839844 486.169677734375,318.6060485839844 485.412109375,317.8484802246094 483.8969421386719,317.8484802246094 482.3818054199219,317.0909118652344 481.6242370605469,317.0909118652344 480.10906982421875,316.3333435058594 479.35150146484375,315.57574462890625 478.59393310546875,314.81817626953125 477.0787658691406,314.06060791015625 476.3211975097656,314.06060791015625 475.5636291503906,313.30303955078125 474.8060302734375,313.30303955078125 474.0484619140625,312.5454406738281 473.2908935546875,312.5454406738281 471.7757263183594,311.7878723144531 471.7757263183594,311.7878723144531 471.0181579589844,311.0303039550781 470.2605895996094,311.0303039550781 468.7454528808594,311.0303039550781 467.98785400390625,310.2727355957031 467.23028564453125,310.2727355957031 466.47271728515625,309.51513671875 466.47271728515625,309.51513671875 465.71514892578125,308.757568359375 464.9575500488281,308.757568359375 464.9575500488281,308.757568359375 464.1999816894531,308.757568359375 464.1999816894531,308 463.4424133300781,308 463.4424133300781,308 463.4424133300781,308 " class=""/><polyline fill="none" stroke="#222222" style="color: rgb(0, 0, 0);" stroke-width="2" stroke-linejoin="round" stroke-dashoffset="" fill-rule="nonzero" marker-start="" marker-mid="" marker-end="" id="svg_21" points="431.6242370605469,311.0303039550781 431.6242370605469,311.0303039550781 431.6242370605469,311.7878723144531 431.6242370605469,312.5454406738281 431.6242370605469,314.06060791015625 431.6242370605469,315.57574462890625 431.6242370605469,316.3333435058594 432.3818054199219,318.6060485839844 433.1393737792969,319.3636474609375 433.8969421386719,321.6363525390625 434.654541015625,323.1515197753906 435.412109375,323.9090881347656 436.169677734375,325.4242248535156 436.92724609375,326.18182373046875 437.6848449707031,326.93939208984375 437.6848449707031,327.69696044921875 438.4424133300781,329.2121276855469 439.1999816894531,329.9696960449219 439.1999816894531,330.7272644042969 439.9575500488281,331.4848327636719 441.47271728515625,333 441.47271728515625,333.757568359375 442.23028564453125,334.51513671875 442.23028564453125,335.2727355957031 442.98785400390625,335.2727355957031 443.7454528808594,336.0303039550781 443.7454528808594,336.7878723144531 443.7454528808594,336.7878723144531 443.7454528808594,336.7878723144531 443.7454528808594,336.7878723144531 443.7454528808594,337.5454406738281 443.7454528808594,337.5454406738281 444.5030212402344,337.5454406738281 444.5030212402344,338.30303955078125 444.5030212402344,339.06060791015625 445.2605895996094,339.06060791015625 445.2605895996094,339.81817626953125 445.2605895996094,340.57574462890625 445.2605895996094,340.57574462890625 " class=""/><polyline fill="#000000" stroke="#222222" style="color: rgb(0, 0, 0);" stroke-width="2" stroke-linejoin="round" stroke-dashoffset="" fill-rule="nonzero" marker-start="" marker-mid="" marker-end="" id="svg_22" points="455.86663818359375,310.2727355957031 455.10906982421875,310.2727355957031 455.10906982421875,309.51513671875 455.10906982421875,309.51513671875 455.10906982421875,308.757568359375 454.35150146484375,308.757568359375 454.35150146484375,308.757568359375 454.35150146484375,308 453.59393310546875,308 453.59393310546875,307.242431640625 453.59393310546875,307.242431640625 452.8363342285156,307.242431640625 452.8363342285156,306.4848327636719 452.8363342285156,306.4848327636719 452.0787658691406,305.7272644042969 452.0787658691406,305.7272644042969 452.0787658691406,304.9696960449219 451.3211975097656,304.9696960449219 451.3211975097656,304.2121276855469 451.3211975097656,303.45452880859375 450.5636291503906,303.45452880859375 450.5636291503906,303.45452880859375 450.5636291503906,303.45452880859375 450.5636291503906,302.69696044921875 450.5636291503906,302.69696044921875 450.5636291503906,302.69696044921875 449.8060302734375,301.93939208984375 449.8060302734375,301.93939208984375 449.0484619140625,301.18182373046875 449.0484619140625,301.18182373046875 449.0484619140625,301.18182373046875 449.0484619140625,300.4242248535156 449.0484619140625,300.4242248535156 449.0484619140625,300.4242248535156 448.2908935546875,300.4242248535156 448.2908935546875,299.6666564941406 448.2908935546875,299.6666564941406 448.2908935546875,299.6666564941406 448.2908935546875,299.6666564941406 448.2908935546875,299.6666564941406 447.5333251953125,299.6666564941406 447.5333251953125,299.6666564941406 447.5333251953125,299.6666564941406 446.7757568359375,299.6666564941406 446.7757568359375,299.6666564941406 446.7757568359375,299.6666564941406 446.0181579589844,299.6666564941406 445.2605895996094,299.6666564941406 444.5030212402344,299.6666564941406 443.7454528808594,301.18182373046875 442.98785400390625,301.93939208984375 442.98785400390625,302.69696044921875 442.23028564453125,302.69696044921875 442.23028564453125,303.45452880859375 442.23028564453125,303.45452880859375 441.47271728515625,304.2121276855469 441.47271728515625,304.2121276855469 440.71514892578125,304.9696960449219 440.71514892578125,305.7272644042969 439.9575500488281,305.7272644042969 439.9575500488281,306.4848327636719 439.9575500488281,306.4848327636719 439.9575500488281,306.4848327636719 439.9575500488281,306.4848327636719 439.1999816894531,306.4848327636719 439.1999816894531,307.242431640625 439.1999816894531,307.242431640625 439.1999816894531,307.242431640625 439.1999816894531,307.242431640625 438.4424133300781,308 438.4424133300781,308.757568359375 437.6848449707031,308.757568359375 437.6848449707031,309.51513671875 437.6848449707031,309.51513671875 436.92724609375,309.51513671875 436.92724609375,309.51513671875 436.92724609375,309.51513671875 436.169677734375,310.2727355957031 435.412109375,310.2727355957031 435.412109375,310.2727355957031 435.412109375,311.0303039550781 435.412109375,311.0303039550781 435.412109375,311.0303039550781 434.654541015625,311.0303039550781 434.654541015625,311.0303039550781 434.654541015625,311.7878723144531 433.8969421386719,311.7878723144531 433.8969421386719,311.7878723144531 433.1393737792969,311.7878723144531 433.1393737792969,311.7878723144531 433.1393737792969,311.7878723144531 433.1393737792969,311.7878723144531 433.1393737792969,311.7878723144531 433.1393737792969,311.7878723144531 433.1393737792969,310.2727355957031 433.1393737792969,309.51513671875 433.1393737792969,308.757568359375 433.1393737792969,307.242431640625 433.1393737792969,305.7272644042969 433.1393737792969,304.2121276855469 432.3818054199219,302.69696044921875 432.3818054199219,301.18182373046875 431.6242370605469,299.6666564941406 431.6242370605469,298.1515197753906 430.86663818359375,296.6363525390625 430.86663818359375,295.1212158203125 430.10906982421875,294.3636474609375 430.10906982421875,292.8484802246094 429.35150146484375,291.3333435058594 428.5939178466797,289.81817626953125 428.5939178466797,288.30303955078125 427.8363494873047,286.7878723144531 427.0787658691406,286.0303039550781 427.0787658691406,284.51513671875 426.3211975097656,283 426.3211975097656,282.242431640625 425.56361389160156,280.7272644042969 425.56361389160156,279.9696960449219 424.80604553222656,278.4545440673828 424.80604553222656,276.93939208984375 424.0484619140625,276.1818084716797 424.0484619140625,274.6666564941406 423.2908935546875,273.1515197753906 423.2908935546875,272.39393615722656 423.2908935546875,271.63636779785156 422.5333251953125,270.1212158203125 422.5333251953125,269.36363220214844 422.5333251953125,267.8484802246094 421.77574157714844,267.0909118652344 421.77574157714844,266.3333282470703 421.77574157714844,265.5757598876953 421.01817321777344,264.06060791015625 421.01817321777344,263.3030242919922 420.2605895996094,261.7878723144531 420.2605895996094,261.0303039550781 419.5030212402344,259.51515197753906 419.5030212402344,258.757568359375 418.7454376220703,257.24241638183594 418.7454376220703,255.72726440429688 417.9878692626953,253.4545440673828 417.9878692626953,251.93939208984375 417.23028564453125,248.90908813476562 415.7151336669922,247.39393615722656 415.7151336669922,245.1212158203125 414.1999816894531,242.84848022460938 413.4424133300781,241.3333282470703 412.68482971191406,239.06060791015625 411.92726135253906,237.5454559326172 411.169677734375,236.03030395507812 411.169677734375,234.51515197753906 410.412109375,233 410.412109375,232.24241638183594 409.65452575683594,230.72726440429688 409.65452575683594,229.2121124267578 408.89695739746094,228.4545440673828 408.89695739746094,227.69696044921875 408.89695739746094,226.93939208984375 408.89695739746094,226.93939208984375 408.89695739746094,226.1818084716797 408.89695739746094,226.1818084716797 408.89695739746094,226.1818084716797 408.89695739746094,226.1818084716797 410.412109375,227.69696044921875 411.169677734375,229.2121124267578 412.68482971191406,229.96969604492188 414.1999816894531,231.48484802246094 415.7151336669922,233.757568359375 416.47271728515625,235.27272033691406 417.9878692626953,236.03030395507812 418.7454376220703,237.5454559326172 420.2605895996094,239.81817626953125 420.2605895996094,240.5757598876953 421.01817321777344,242.09091186523438 421.77574157714844,242.84848022460938 422.5333251953125,244.36363220214844 422.5333251953125,245.8787841796875 423.2908935546875,247.39393615722656 424.0484619140625,248.90908813476562 424.80604553222656,249.66665649414062 425.56361389160156,252.69696044921875 426.3211975097656,254.2121124267578 427.0787658691406,255.72726440429688 427.8363494873047,257.24241638183594 428.5939178466797,258.757568359375 429.35150146484375,260.27272033691406 430.10906982421875,261.7878723144531 430.86663818359375,263.3030242919922 431.6242370605469,264.81817626953125 432.3818054199219,266.3333282470703 433.1393737792969,268.60606384277344 433.8969421386719,270.1212158203125 434.654541015625,271.63636779785156 435.412109375,273.1515197753906 436.169677734375,274.6666564941406 436.92724609375,275.4242401123047 437.6848449707031,276.93939208984375 437.6848449707031,277.69696044921875 438.4424133300781,278.4545440673828 438.4424133300781,279.2121124267578 439.1999816894531,280.7272644042969 439.9575500488281,281.4848327636719 440.71514892578125,282.242431640625 440.71514892578125,283 441.47271728515625,283 441.47271728515625,283.757568359375 441.47271728515625,284.51513671875 442.23028564453125,285.2727355957031 442.23028564453125,286.7878723144531 442.98785400390625,287.5454406738281 442.98785400390625,289.06060791015625 443.7454528808594,289.81817626953125 444.5030212402344,291.3333435058594 444.5030212402344,292.0909118652344 445.2605895996094,292.8484802246094 445.2605895996094,292.8484802246094 445.2605895996094,293.6060485839844 445.2605895996094,294.3636474609375 446.0181579589844,295.1212158203125 446.0181579589844,295.1212158203125 446.0181579589844,295.8787841796875 " class="" fill-opacity="1"/><polyline fill="none" stroke="#222222" style="color: rgb(0, 0, 0);" stroke-width="2" stroke-linejoin="round" stroke-dashoffset="" fill-rule="nonzero" marker-start="" marker-mid="" marker-end="" id="svg_23" points="458.8969421386719,308.757568359375 458.8969421386719,308.757568359375 459.654541015625,308.757568359375 459.654541015625,308.757568359375 " class=""/><polyline fill="#000000" stroke="#222222" style="color: rgb(0, 0, 0);" stroke-width="2" stroke-linejoin="round" stroke-dashoffset="" fill-rule="nonzero" marker-start="" marker-mid="" marker-end="" id="svg_24" points="529.3515014648438,117.09090423583984 528.5939331054688,117.09090423583984 526.3211975097656,117.09090423583984 523.2908935546875,117.09090423583984 519.5030212402344,117.09090423583984 514.1999816894531,117.09090423583984 507.3818054199219,117.09090423583984 503.59393310546875,117.09090423583984 499.8060302734375,116.33332824707031 494.5030212402344,115.57575988769531 490.71514892578125,114.81818389892578 486.92724609375,114.06060791015625 483.1393737792969,113.30303192138672 480.10906982421875,112.54545593261719 476.3211975097656,111.78787994384766 472.5333251953125,111.78787994384766 469.5030212402344,111.03030395507812 466.47271728515625,110.2727279663086 462.6848449707031,109.51515197753906 459.654541015625,108.75757598876953 458.1393737792969,108 455.86663818359375,107.24242401123047 453.59393310546875,106.48484802246094 452.0787658691406,105.7272720336914 450.5636291503906,105.7272720336914 449.0484619140625,104.96969604492188 447.5333251953125,104.21212005615234 446.7757568359375,103.45454406738281 445.2605895996094,103.45454406738281 443.7454528808594,102.69696807861328 442.23028564453125,102.69696807861328 441.47271728515625,101.93939208984375 441.47271728515625,101.93939208984375 440.71514892578125,101.93939208984375 440.71514892578125,101.93939208984375 439.9575500488281,101.93939208984375 439.9575500488281,101.93939208984375 440.71514892578125,101.93939208984375 440.71514892578125,101.93939208984375 441.47271728515625,102.69696807861328 442.98785400390625,102.69696807861328 443.7454528808594,103.45454406738281 444.5030212402344,104.21212005615234 446.0181579589844,104.96969604492188 446.7757568359375,105.7272720336914 448.2908935546875,106.48484802246094 449.0484619140625,107.24242401123047 450.5636291503906,108 451.3211975097656,108 452.0787658691406,108.75757598876953 453.59393310546875,109.51515197753906 453.59393310546875,109.51515197753906 455.10906982421875,110.2727279663086 455.86663818359375,111.03030395507812 457.3818054199219,111.78787994384766 458.1393737792969,111.78787994384766 458.8969421386719,112.54545593261719 460.412109375,113.30303192138672 461.169677734375,114.06060791015625 461.92724609375,114.06060791015625 462.6848449707031,114.81818389892578 464.1999816894531,115.57575988769531 464.9575500488281,116.33332824707031 465.71514892578125,116.33332824707031 467.23028564453125,117.09090423583984 467.98785400390625,117.84848022460938 469.5030212402344,118.6060562133789 470.2605895996094,118.6060562133789 471.0181579589844,119.36363220214844 471.7757263183594,119.36363220214844 473.2908935546875,120.12120819091797 474.0484619140625,120.12120819091797 474.8060302734375,120.8787841796875 476.3211975097656,120.8787841796875 477.0787658691406,120.8787841796875 477.8363342285156,121.63636016845703 478.59393310546875,121.63636016845703 479.35150146484375,122.39393615722656 480.10906982421875,122.39393615722656 480.86663818359375,122.39393615722656 481.6242370605469,122.39393615722656 482.3818054199219,122.39393615722656 483.1393737792969,122.39393615722656 483.8969421386719,123.1515121459961 485.412109375,123.1515121459961 486.169677734375,123.1515121459961 487.6848449707031,123.90908813476562 488.4424133300781,123.90908813476562 488.4424133300781,123.90908813476562 489.1999816894531,123.90908813476562 489.9575500488281,123.90908813476562 490.71514892578125,124.66666412353516 491.47271728515625,124.66666412353516 492.23028564453125,124.66666412353516 492.98785400390625,124.66666412353516 493.7454528808594,124.66666412353516 495.2605895996094,124.66666412353516 495.2605895996094,124.66666412353516 496.7757263183594,124.66666412353516 497.5333251953125,124.66666412353516 498.2908935546875,124.66666412353516 499.8060302734375,124.66666412353516 500.5636291503906,124.66666412353516 501.3211975097656,124.66666412353516 502.8363342285156,124.66666412353516 502.8363342285156,124.66666412353516 503.59393310546875,124.66666412353516 504.35150146484375,124.66666412353516 504.35150146484375,124.66666412353516 505.10906982421875,124.66666412353516 505.86663818359375,124.66666412353516 505.86663818359375,124.66666412353516 506.6242370605469,124.66666412353516 507.3818054199219,124.66666412353516 508.1393737792969,124.66666412353516 508.8969421386719,124.66666412353516 508.8969421386719,124.66666412353516 509.654541015625,123.90908813476562 510.412109375,123.90908813476562 511.169677734375,123.90908813476562 511.169677734375,123.90908813476562 511.92724609375,123.1515121459961 512.6848449707031,123.1515121459961 513.4424133300781,123.1515121459961 514.1999816894531,123.1515121459961 514.9575500488281,123.1515121459961 515.7151489257812,122.39393615722656 516.4727172851562,122.39393615722656 517.2302856445312,122.39393615722656 517.2302856445312,122.39393615722656 517.9878540039062,122.39393615722656 517.9878540039062,121.63636016845703 518.7454528808594,121.63636016845703 518.7454528808594,121.63636016845703 519.5030212402344,121.63636016845703 520.2605895996094,121.63636016845703 520.2605895996094,121.63636016845703 520.2605895996094,121.63636016845703 520.2605895996094,121.63636016845703 521.0181579589844,121.63636016845703 521.0181579589844,121.63636016845703 521.7757263183594,120.8787841796875 522.5333251953125,120.8787841796875 524.0484619140625,120.8787841796875 524.0484619140625,120.8787841796875 524.8060302734375,120.8787841796875 525.5636291503906,120.8787841796875 525.5636291503906,120.8787841796875 525.5636291503906,120.8787841796875 526.3211975097656,120.8787841796875 526.3211975097656,120.8787841796875 526.3211975097656,120.8787841796875 527.0787658691406,120.8787841796875 527.8363342285156,120.8787841796875 528.5939331054688,120.8787841796875 529.3515014648438,120.8787841796875 529.3515014648438,120.8787841796875 530.1090698242188,120.8787841796875 530.1090698242188,120.8787841796875 530.8666381835938,120.8787841796875 530.8666381835938,120.8787841796875 531.6242370605469,120.8787841796875 531.6242370605469,120.8787841796875 531.6242370605469,120.8787841796875 531.6242370605469,120.12120819091797 531.6242370605469,120.12120819091797 531.6242370605469,120.12120819091797 531.6242370605469,120.12120819091797 531.6242370605469,119.36363220214844 531.6242370605469,119.36363220214844 531.6242370605469,119.36363220214844 531.6242370605469,119.36363220214844 531.6242370605469,119.36363220214844 " class="" fill-opacity="1"/><polyline fill="none" stroke="#222222" style="color: rgb(0, 0, 0);" stroke-width="2" stroke-linejoin="round" stroke-dashoffset="" fill-rule="nonzero" marker-start="" marker-mid="" marker-end="" id="svg_25" points="445.2605895996094,339.81817626953125 446.0181579589844,339.81817626953125 446.0181579589844,339.81817626953125 446.7757568359375,339.81817626953125 447.5333251953125,339.81817626953125 451.3211975097656,339.81817626953125 452.0787658691406,339.81817626953125 452.8363342285156,339.81817626953125 455.86663818359375,340.57574462890625 458.1393737792969,341.3333435058594 459.654541015625,342.0909118652344 461.169677734375,342.8484802246094 464.1999816894531,343.6060485839844 466.47271728515625,344.3636474609375 467.98785400390625,345.1212158203125 470.2605895996094,345.8787841796875 471.7757263183594,345.8787841796875 472.5333251953125,346.6363525390625 474.0484619140625,347.3939208984375 474.8060302734375,347.3939208984375 476.3211975097656,348.1515197753906 477.8363342285156,348.9090881347656 479.35150146484375,348.9090881347656 480.10906982421875,349.6666564941406 481.6242370605469,350.4242248535156 482.3818054199219,351.18182373046875 483.8969421386719,351.18182373046875 485.412109375,351.93939208984375 486.169677734375,352.69696044921875 487.6848449707031,353.45452880859375 488.4424133300781,354.2121276855469 489.9575500488281,354.9696960449219 490.71514892578125,354.9696960449219 492.23028564453125,355.7272644042969 492.98785400390625,356.4848327636719 493.7454528808594,357.242431640625 494.5030212402344,357.242431640625 495.2605895996094,358 496.0181579589844,358.757568359375 496.7757263183594,358.757568359375 497.5333251953125,359.51513671875 499.0484619140625,360.2727355957031 499.8060302734375,361.0303039550781 500.5636291503906,361.7878723144531 501.3211975097656,362.5454406738281 502.0787658691406,362.5454406738281 502.8363342285156,363.30303955078125 503.59393310546875,363.30303955078125 505.10906982421875,364.06060791015625 505.10906982421875,364.81817626953125 506.6242370605469,364.81817626953125 507.3818054199219,365.57574462890625 508.1393737792969,366.3333435058594 509.654541015625,367.0909118652344 510.412109375,367.0909118652344 511.169677734375,367.8484802246094 511.92724609375,367.8484802246094 512.6848449707031,368.6060485839844 513.4424133300781,368.6060485839844 513.4424133300781,369.3636474609375 514.1999816894531,369.3636474609375 514.1999816894531,370.1212158203125 514.9575500488281,370.1212158203125 515.7151489257812,370.8787841796875 515.7151489257812,370.8787841796875 516.4727172851562,371.6363525390625 516.4727172851562,371.6363525390625 516.4727172851562,371.6363525390625 516.4727172851562,371.6363525390625 516.4727172851562,371.6363525390625 517.2302856445312,371.6363525390625 517.2302856445312,372.3939208984375 517.9878540039062,373.1515197753906 518.7454528808594,373.9090881347656 518.7454528808594,373.9090881347656 519.5030212402344,374.6666564941406 519.5030212402344,374.6666564941406 519.5030212402344,374.6666564941406 520.2605895996094,375.4242248535156 521.0181579589844,377.69696044921875 " class=""/><polyline fill="none" stroke="#222222" style="color: rgb(0, 0, 0);" stroke-width="2" stroke-linejoin="round" stroke-dashoffset="" fill-rule="nonzero" marker-start="" marker-mid="" marker-end="" id="svg_8" points="564.9575500488281,233 564.9575500488281,233 564.9575500488281,232.24241638183594 564.9575500488281,232.24241638183594 564.9575500488281,231.48484802246094 564.9575500488281,231.48484802246094 564.9575500488281,230.72726440429688 564.9575500488281,230.72726440429688 564.9575500488281,229.96969604492188 564.9575500488281,229.2121124267578 564.9575500488281,229.2121124267578 564.9575500488281,229.2121124267578 564.9575500488281,228.4545440673828 564.9575500488281,228.4545440673828 564.9575500488281,227.69696044921875 564.9575500488281,227.69696044921875 564.9575500488281,226.93939208984375 564.9575500488281,226.93939208984375 564.9575500488281,226.1818084716797 564.9575500488281,226.1818084716797 564.9575500488281,225.4242401123047 564.9575500488281,224.66665649414062 565.7151489257812,224.66665649414062 565.7151489257812,223.90908813476562 565.7151489257812,223.15151977539062 565.7151489257812,222.39393615722656 565.7151489257812,221.63636779785156 565.7151489257812,221.63636779785156 565.7151489257812,220.8787841796875 565.7151489257812,220.8787841796875 565.7151489257812,220.1212158203125 565.7151489257812,219.36363220214844 565.7151489257812,219.36363220214844 565.7151489257812,218.60606384277344 565.7151489257812,217.84848022460938 565.7151489257812,217.84848022460938 565.7151489257812,217.09091186523438 565.7151489257812,217.09091186523438 565.7151489257812,216.3333282470703 565.7151489257812,216.3333282470703 565.7151489257812,215.5757598876953 565.7151489257812,214.81817626953125 565.7151489257812,214.06060791015625 565.7151489257812,213.3030242919922 565.7151489257812,212.5454559326172 565.7151489257812,212.5454559326172 565.7151489257812,211.78787231445312 564.9575500488281,211.03030395507812 564.9575500488281,211.03030395507812 564.9575500488281,210.27272033691406 564.9575500488281,209.51515197753906 564.9575500488281,208.757568359375 564.1999816894531,208.757568359375 564.1999816894531,208 564.1999816894531,208 563.4424133300781,207.24241638183594 563.4424133300781,207.24241638183594 563.4424133300781,206.48484802246094 563.4424133300781,206.48484802246094 563.4424133300781,205.72726440429688 562.6848449707031,205.72726440429688 562.6848449707031,204.96969604492188 562.6848449707031,204.96969604492188 562.6848449707031,204.96969604492188 562.6848449707031,204.96969604492188 562.6848449707031,204.2121124267578 562.6848449707031,204.2121124267578 562.6848449707031,203.4545440673828 562.6848449707031,203.4545440673828 562.6848449707031,203.4545440673828 562.6848449707031,202.69696044921875 562.6848449707031,202.69696044921875 " class=""/><polyline fill="none" stroke="#222222" style="color: rgb(0, 0, 0);" stroke-width="2" stroke-linejoin="round" stroke-dashoffset="" fill-rule="nonzero" marker-start="" marker-mid="" marker-end="" id="svg_10" points="592.9878540039062,195.1212158203125 592.9878540039062,195.1212158203125 592.9878540039062,196.63636779785156 593.7454223632812,197.39393615722656 593.7454223632812,198.15151977539062 594.5030212402344,198.90908813476562 595.2605895996094,199.6666717529297 595.2605895996094,200.4242401123047 596.0181579589844,201.1818084716797 596.0181579589844,201.1818084716797 596.7757263183594,202.69696044921875 596.7757263183594,203.4545440673828 597.5333251953125,203.4545440673828 597.5333251953125,204.2121124267578 598.2908935546875,204.96969604492188 598.2908935546875,204.96969604492188 598.2908935546875,205.72726440429688 598.2908935546875,205.72726440429688 599.0484619140625,206.48484802246094 599.0484619140625,206.48484802246094 599.0484619140625,206.48484802246094 599.0484619140625,206.48484802246094 599.0484619140625,207.24241638183594 599.0484619140625,207.24241638183594 598.2908935546875,207.24241638183594 598.2908935546875,208 598.2908935546875,208 598.2908935546875,208 598.2908935546875,208 598.2908935546875,208 598.2908935546875,208.757568359375 598.2908935546875,208.757568359375 598.2908935546875,208.757568359375 598.2908935546875,208.757568359375 598.2908935546875,209.51515197753906 598.2908935546875,209.51515197753906 598.2908935546875,209.51515197753906 597.5333251953125,209.51515197753906 597.5333251953125,210.27272033691406 597.5333251953125,210.27272033691406 597.5333251953125,210.27272033691406 597.5333251953125,210.27272033691406 597.5333251953125,211.03030395507812 597.5333251953125,211.03030395507812 597.5333251953125,211.03030395507812 " class=""/><polyline fill="none" stroke="#222222" style="color: rgb(0, 0, 0);" stroke-width="2" stroke-linejoin="round" stroke-dashoffset="" fill-rule="nonzero" marker-start="" marker-mid="" marker-end="" id="svg_12" points="587.6848449707031,183.757568359375 587.6848449707031,183.757568359375 587.6848449707031,183.757568359375 587.6848449707031,183.757568359375 586.92724609375,183 586.92724609375,182.24241638183594 586.92724609375,182.24241638183594 586.169677734375,181.48484802246094 586.169677734375,181.48484802246094 586.169677734375,180.72726440429688 585.412109375,179.96969604492188 585.412109375,179.96969604492188 585.412109375,179.2121124267578 584.654541015625,179.2121124267578 584.654541015625,179.2121124267578 584.654541015625,178.4545440673828 583.8969421386719,178.4545440673828 583.8969421386719,177.69696044921875 583.8969421386719,177.69696044921875 583.1393737792969,176.93939208984375 583.1393737792969,176.18182373046875 582.3818054199219,175.4242401123047 582.3818054199219,175.4242401123047 582.3818054199219,174.6666717529297 582.3818054199219,174.6666717529297 581.6242370605469,173.90908813476562 581.6242370605469,173.90908813476562 581.6242370605469,173.90908813476562 581.6242370605469,173.90908813476562 581.6242370605469,173.15151977539062 581.6242370605469,173.15151977539062 581.6242370605469,173.15151977539062 581.6242370605469,172.39393615722656 581.6242370605469,172.39393615722656 581.6242370605469,172.39393615722656 580.8666381835938,171.63636779785156 580.8666381835938,170.8787841796875 580.8666381835938,170.8787841796875 580.8666381835938,170.8787841796875 580.8666381835938,170.8787841796875 580.8666381835938,170.1212158203125 580.8666381835938,170.1212158203125 580.8666381835938,170.1212158203125 580.8666381835938,170.1212158203125 580.8666381835938,169.36363220214844 580.8666381835938,168.60606384277344 580.8666381835938,168.60606384277344 580.8666381835938,168.60606384277344 580.8666381835938,168.60606384277344 580.8666381835938,167.84848022460938 580.8666381835938,167.84848022460938 580.1090698242188,167.09091186523438 580.1090698242188,167.09091186523438 580.1090698242188,166.3333282470703 580.1090698242188,166.3333282470703 " class=""/><polyline fill="none" stroke="#222222" style="color: rgb(0, 0, 0);" stroke-width="2" stroke-linejoin="round" stroke-dashoffset="" fill-rule="nonzero" marker-start="" marker-mid="" marker-end="" id="svg_13" points="447.5333251953125,298.1515197753906 447.5333251953125,298.1515197753906 447.5333251953125,298.1515197753906 447.5333251953125,297.3939208984375 447.5333251953125,297.3939208984375 447.5333251953125,297.3939208984375 447.5333251953125,296.6363525390625 447.5333251953125,296.6363525390625 446.7757568359375,296.6363525390625 446.7757568359375,295.8787841796875 446.7757568359375,295.8787841796875 446.7757568359375,295.8787841796875 446.7757568359375,295.1212158203125 446.7757568359375,295.8787841796875 446.7757568359375,295.8787841796875 446.7757568359375,295.8787841796875 446.7757568359375,296.6363525390625 446.7757568359375,296.6363525390625 446.7757568359375,297.3939208984375 446.7757568359375,297.3939208984375 446.7757568359375,297.3939208984375 446.7757568359375,298.1515197753906 446.7757568359375,298.1515197753906 446.7757568359375,298.1515197753906 446.7757568359375,298.9090881347656 446.7757568359375,298.9090881347656 446.7757568359375,298.9090881347656 446.7757568359375,299.6666564941406 " class=""/><polyline fill="none" stroke="#222222" style="color: rgb(0, 0, 0);" stroke-width="2" stroke-linejoin="round" stroke-dashoffset="" fill-rule="nonzero" marker-start="" marker-mid="" marker-end="" id="svg_14" points="530.1090698242188,117.84848022460938 529.3515014648438,117.84848022460938 529.3515014648438,117.84848022460938 529.3515014648438,117.84848022460938 528.5939331054688,117.84848022460938 528.5939331054688,117.84848022460938 528.5939331054688,117.84848022460938 527.8363342285156,117.84848022460938 527.8363342285156,117.84848022460938 527.8363342285156,117.84848022460938 527.8363342285156,117.84848022460938 527.0787658691406,117.84848022460938 " class=""/><polyline fill="none" stroke="#222222" style="color: rgb(0, 0, 0);" stroke-width="2" stroke-linejoin="round" stroke-dashoffset="" fill-rule="nonzero" marker-start="" marker-mid="" marker-end="" id="svg_2" points="621.7757263183594,254.2121124267578 622.5332946777344,254.2121124267578 622.5332946777344,254.2121124267578 623.2908630371094,254.2121124267578 624.8060302734375,254.2121124267578 625.5635986328125,254.2121124267578 627.0787353515625,254.2121124267578 627.8363342285156,254.2121124267578 629.3514709472656,254.2121124267578 630.8666381835938,255.72726440429688 631.6242065429688,256.48484802246094 633.1393432617188,258 633.8969421386719,259.51515197753906 635.4120788574219,261.0303039550781 636.1696472167969,262.5454559326172 637.684814453125,264.81817626953125 638.4423828125,265.5757598876953 639.199951171875,267.0909118652344 639.95751953125,268.60606384277344 641.4726867675781,270.1212158203125 642.2302551269531,271.6363830566406 642.9878234863281,272.3939514160156 642.9878234863281,273.9090881347656 644.5029907226562,276.18182373046875 644.5029907226562,278.4545593261719 645.2605590820312,280.7272644042969 646.0181274414062,283 646.0181274414062,285.2727355957031 646.0181274414062,288.30303955078125 646.0181274414062,292.8485107421875 646.0181274414062,296.6363830566406 646.0181274414062,299.66668701171875 646.0181274414062,303.4545593261719 645.2605590820312,306.48486328125 644.5029907226562,309.5151672363281 644.5029907226562,312.54547119140625 643.7454223632812,314.8182067871094 643.7454223632812,317.0909118652344 642.9878234863281,319.3636474609375 642.9878234863281,322.3939514160156 642.2302551269531,326.93939208984375 641.4726867675781,330.727294921875 641.4726867675781,333.7575988769531 640.7151184082031,336.78790283203125 640.7151184082031,339.06060791015625 639.95751953125,342.0909118652344 639.95751953125,344.3636474609375 639.199951171875,346.6363830566406 638.4423828125,348.9090881347656 638.4423828125,351.18182373046875 637.684814453125,352.6969909667969 637.684814453125,354.2121276855469 637.684814453125,355.727294921875 637.684814453125,358 636.9272155761719,359.5151672363281 636.9272155761719,361.0303039550781 636.9272155761719,364.06060791015625 636.9272155761719,366.3333435058594 636.9272155761719,367.8485107421875 636.9272155761719,370.1212158203125 636.9272155761719,373.1515197753906 637.684814453125,375.42425537109375 637.684814453125,376.93939208984375 638.4423828125,380.727294921875 639.199951171875,383.7575988769531 639.95751953125,386.0303039550781 640.7151184082031,389.06060791015625 641.4726867675781,391.3333435058594 642.2302551269531,393.6060791015625 642.9878234863281,395.8788146972656 644.5029907226562,398.9090881347656 646.0181274414062,401.18182373046875 646.7757263183594,402.6969909667969 647.5332946777344,404.9696960449219 648.2908630371094,406.48486328125 648.2908630371094,407.242431640625 649.0484313964844,408 649.0484313964844,408.7575988769531 649.0484313964844,408.7575988769531 649.0484313964844,408.7575988769531 " class="" transform="rotate(1.02303, 635.412, 331.485)"/></g><g class="" id="svg_15" transform="rotate(149.139, 249.501, 174.667)"><polyline fill="none" stroke="#222222" style="color: rgb(0, 0, 0);" stroke-width="2" stroke-linejoin="round" stroke-dashoffset="" fill-rule="nonzero" marker-start="" marker-mid="" marker-end="" id="svg_18" points="285.41204833984375,136.78787994384766 285.41204833984375,137.54546356201172 285.41204833984375,138.30304718017578 285.41204833984375,139.06061553955078 285.41204833984375,140.57575225830078 285.41204833984375,142.0909194946289 285.41204833984375,145.12122344970703 285.41204833984375,146.63636016845703 285.41204833984375,148.15152740478516 285.41204833984375,151.18183135986328 285.41204833984375,152.69696807861328 284.65447998046875,154.9697036743164 284.65447998046875,157.24243927001953 284.65447998046875,159.51517486572266 284.65447998046875,161.03031158447266 283.89691162109375,164.06061553955078 283.89691162109375,166.3333511352539 283.89691162109375,169.36365509033203 283.89691162109375,172.39395904541016 283.89691162109375,177.69696807861328 283.13934326171875,182.24243927001953 282.38177490234375,188.30304718017578 281.62420654296875,194.36365509033203 280.10906982421875,198.90909576416016 278.59393310546875,204.2121353149414 277.8363037109375,210.27274322509766 276.3211669921875,214.81818389892578 275.5635986328125,220.12122344970703 274.04840087890625,225.42426300048828 271.77569580078125,232.24243927001953 270.26055908203125,236.03031158447266 267.98785400390625,239.81818389892578 266.47271728515625,242.8484878540039 264.95751953125,245.12122344970703 264.199951171875,246.63636016845703 263.4423828125,246.63636016845703 263.4423828125,247.39395904541016 263.4423828125,248.15152740478516 262.684814453125,248.15152740478516 262.684814453125,248.15152740478516 261.92724609375,248.15152740478516 " class=""/><polyline fill="none" stroke="#222222" style="color: rgb(0, 0, 0);" stroke-width="2" stroke-linejoin="round" stroke-dashoffset="" fill-rule="nonzero" marker-start="" marker-mid="" marker-end="" id="svg_19" points="317.98785400390625,123.15152740478516 317.98785400390625,123.15152740478516 317.98785400390625,123.90909576416016 317.98785400390625,124.66666412353516 317.98785400390625,125.42424774169922 317.98785400390625,126.18183135986328 317.98785400390625,127.69696807861328 317.98785400390625,128.45455169677734 317.98785400390625,129.9697036743164 317.98785400390625,131.48485565185547 317.98785400390625,133.75757598876953 317.98785400390625,134.5151596069336 317.98785400390625,136.78787994384766 317.98785400390625,139.06061553955078 317.98785400390625,140.57575225830078 317.98785400390625,142.0909194946289 317.98785400390625,144.36365509033203 317.98785400390625,145.12122344970703 317.98785400390625,146.63636016845703 317.98785400390625,148.15152740478516 317.98785400390625,148.90909576416016 318.74542236328125,150.42426300048828 318.74542236328125,151.93939971923828 318.74542236328125,153.4545669555664 318.74542236328125,155.7272720336914 318.74542236328125,157.24243927001953 318.74542236328125,158.75757598876953 318.74542236328125,160.27274322509766 318.74542236328125,161.78787994384766 318.74542236328125,163.30304718017578 318.74542236328125,164.06061553955078 318.74542236328125,166.3333511352539 318.74542236328125,167.8484878540039 318.74542236328125,169.36365509033203 318.74542236328125,170.12122344970703 318.74542236328125,170.87879180908203 318.74542236328125,172.39395904541016 318.74542236328125,173.90909576416016 318.74542236328125,175.42426300048828 318.74542236328125,176.93939971923828 318.74542236328125,178.4545669555664 318.74542236328125,179.2121353149414 318.74542236328125,180.7272720336914 318.74542236328125,182.24243927001953 318.74542236328125,183.00000762939453 319.50299072265625,184.51517486572266 319.50299072265625,185.27274322509766 319.50299072265625,186.03031158447266 319.50299072265625,186.78787994384766 319.50299072265625,187.54544830322266 319.50299072265625,188.30304718017578 " class=""/><polyline fill="none" stroke="#222222" style="color: rgb(0, 0, 0);" stroke-width="2" stroke-linejoin="round" stroke-dashoffset="" fill-rule="nonzero" marker-start="" marker-mid="" marker-end="" id="svg_26" points="306.62420654296875,91.3333511352539 306.62420654296875,91.3333511352539 306.62420654296875,92.0909194946289 306.62420654296875,92.8484878540039 307.38177490234375,94.36365509033203 308.13934326171875,95.87879180908203 308.89691162109375,96.6363754272461 309.65447998046875,98.90909576416016 309.65447998046875,99.66667938232422 310.41204833984375,100.42426300048828 311.16961669921875,101.18183135986328 311.16961669921875,101.93939971923828 311.92718505859375,102.69696807861328 311.92718505859375,103.45455169677734 311.92718505859375,104.2121353149414 311.92718505859375,104.2121353149414 312.68475341796875,104.9697036743164 312.68475341796875,105.7272720336914 313.4423828125,106.48485565185547 313.4423828125,106.48485565185547 313.4423828125,107.24243927001953 313.4423828125,108.00000762939453 " class=""/><polyline fill="none" stroke="#222222" style="color: rgb(0, 0, 0);" stroke-width="2" stroke-linejoin="round" stroke-dashoffset="" fill-rule="nonzero" marker-start="" marker-mid="" marker-end="" id="svg_27" points="274.04840087890625,93.60607147216797 274.04840087890625,93.60607147216797 274.04840087890625,94.36365509033203 274.04840087890625,95.12122344970703 274.04840087890625,95.87879180908203 274.04840087890625,97.39395904541016 274.80596923828125,98.15152740478516 275.5635986328125,98.90909576416016 275.5635986328125,99.66667938232422 276.3211669921875,99.66667938232422 276.3211669921875,100.42426300048828 277.0787353515625,101.18183135986328 277.0787353515625,101.18183135986328 277.8363037109375,101.93939971923828 277.8363037109375,102.69696807861328 277.8363037109375,102.69696807861328 278.59393310546875,103.45455169677734 278.59393310546875,104.2121353149414 278.59393310546875,104.2121353149414 279.35150146484375,104.9697036743164 279.35150146484375,104.9697036743164 279.35150146484375,104.9697036743164 279.35150146484375,105.7272720336914 280.10906982421875,106.48485565185547 280.10906982421875,106.48485565185547 280.10906982421875,107.24243927001953 280.10906982421875,107.24243927001953 280.10906982421875,107.24243927001953 280.10906982421875,107.24243927001953 280.10906982421875,108.00000762939453 280.86663818359375,108.00000762939453 280.86663818359375,109.5151596069336 281.62420654296875,110.27274322509766 281.62420654296875,110.27274322509766 281.62420654296875,110.27274322509766 281.62420654296875,111.03031158447266 281.62420654296875,111.03031158447266 281.62420654296875,111.03031158447266 282.38177490234375,111.78787994384766 283.13934326171875,112.54546356201172 283.13934326171875,112.54546356201172 283.13934326171875,113.30304718017578 283.89691162109375,114.06061553955078 284.65447998046875,114.81818389892578 284.65447998046875,115.57576751708984 285.41204833984375,116.3333511352539 285.41204833984375,117.0909194946289 285.41204833984375,117.0909194946289 285.41204833984375,117.0909194946289 " class=""/><polyline fill="none" stroke="#222222" style="color: rgb(0, 0, 0);" stroke-width="2" stroke-linejoin="round" stroke-dashoffset="" fill-rule="nonzero" marker-start="" marker-mid="" marker-end="" id="svg_28" points="300.5635986328125,77.69696807861328 300.5635986328125,77.69696807861328 299.80596923828125,77.69696807861328 299.04840087890625,77.69696807861328 297.53326416015625,76.18183135986328 296.01812744140625,74.66667938232422 294.50299072265625,73.15152740478516 293.74542236328125,71.6363754272461 291.47271728515625,70.12122344970703 290.715087890625,69.36365509033203 289.95751953125,68.60607147216797 288.4423828125,67.0909194946289 285.41204833984375,64.81818389892578 284.65447998046875,63.30304718017578 283.13934326171875,62.54546356201172 281.62420654296875,61.030311584472656 280.86663818359375,60.272743225097656 279.35150146484375,59.515159606933594 278.59393310546875,58.75757598876953 277.8363037109375,58.00000762939453 276.3211669921875,56.48485565185547 275.5635986328125,55.72728729248047 274.04840087890625,54.969703674316406 273.29083251953125,54.212135314941406 271.77569580078125,53.454551696777344 271.01812744140625,51.93939971923828 270.26055908203125,51.18183135986328 269.50299072265625,50.42424774169922 268.74542236328125,49.66667938232422 267.23028564453125,48.151527404785156 266.47271728515625,47.393943786621094 265.71514892578125,46.636375427246094 264.95751953125,45.12122344970703 263.4423828125,44.36365509033203 262.684814453125,42.848487854003906 261.92724609375,41.333351135253906 260.41204833984375,40.575767517089844 259.65447998046875,39.81818389892578 258.89691162109375,38.30303192138672 258.13934326171875,37.54546356201172 257.38177490234375,36.030311584472656 256.62420654296875,35.272727966308594 255.86663818359375,34.515159606933594 255.10906982421875,33.75757598876953 255.10906982421875,33.00000762939453 254.35150146484375,32.24242401123047 254.35150146484375,32.24242401123047 253.59393310546875,31.48485565185547 253.59393310546875,31.48485565185547 253.59393310546875,31.48485565185547 253.59393310546875,30.72728729248047 252.83636474609375,30.72728729248047 252.83636474609375,30.72728729248047 252.83636474609375,29.969703674316406 252.83636474609375,29.969703674316406 252.0787353515625,29.969703674316406 252.0787353515625,29.969703674316406 252.0787353515625,29.969703674316406 252.0787353515625,29.969703674316406 252.0787353515625,29.212135314941406 252.0787353515625,29.969703674316406 252.83636474609375,31.48485565185547 252.83636474609375,33.75757598876953 " class=""/><polyline fill="none" stroke="#222222" style="color: rgb(0, 0, 0);" stroke-width="2" stroke-linejoin="round" stroke-dashoffset="" fill-rule="nonzero" marker-start="" marker-mid="" marker-end="" id="svg_29" points="239.95751953125,35.272727966308594 239.95751953125,36.030311584472656 239.95751953125,36.030311584472656 239.95751953125,37.54546356201172 239.95751953125,38.30303192138672 240.71514892578125,39.06061553955078 240.71514892578125,40.575767517089844 241.47271728515625,41.333351135253906 242.23028564453125,42.848487854003906 242.23028564453125,43.60607147216797 242.98785400390625,45.12122344970703 243.74542236328125,45.87879180908203 244.50299072265625,46.636375427246094 244.50299072265625,48.151527404785156 245.26055908203125,48.909095764160156 246.01812744140625,49.66667938232422 246.77569580078125,51.18183135986328 247.53326416015625,51.93939971923828 247.53326416015625,53.454551696777344 249.04840087890625,54.212135314941406 249.8060302734375,55.72728729248047 251.3211669921875,57.24243927001953 252.0787353515625,58.75757598876953 253.59393310546875,59.515159606933594 254.35150146484375,60.272743225097656 255.86663818359375,61.787879943847656 256.62420654296875,62.54546356201172 258.13934326171875,63.30304718017578 258.89691162109375,64.06061553955078 259.65447998046875,64.81818389892578 259.65447998046875,64.81818389892578 260.41204833984375,65.57576751708984 260.41204833984375,65.57576751708984 260.41204833984375,65.57576751708984 260.41204833984375,65.57576751708984 260.41204833984375,65.57576751708984 260.41204833984375,66.3333511352539 260.41204833984375,67.8484878540039 261.16961669921875,69.36365509033203 261.92724609375,70.87879180908203 261.92724609375,72.3939437866211 263.4423828125,73.90909576416016 264.199951171875,75.42426300048828 264.95751953125,76.93939971923828 267.23028564453125,81.48485565185547 268.74542236328125,85.27274322509766 271.01812744140625,88.30304718017578 272.53326416015625,90.57576751708984 274.04840087890625,93.60607147216797 275.5635986328125,96.6363754272461 277.0787353515625,98.90909576416016 277.8363037109375,101.18183135986328 278.59393310546875,104.2121353149414 279.35150146484375,105.7272720336914 " class=""/><polyline fill="none" stroke="#222222" style="color: rgb(0, 0, 0);" stroke-width="2" stroke-linejoin="round" stroke-dashoffset="" fill-rule="nonzero" marker-start="" marker-mid="" marker-end="" id="svg_30" points="161.92727661132812,214.06061553955078 161.169677734375,214.06061553955078 " class=""/><polyline fill="none" stroke="#222222" style="color: rgb(0, 0, 0);" stroke-width="2" stroke-linejoin="round" stroke-dashoffset="" fill-rule="nonzero" marker-start="" marker-mid="" marker-end="" id="svg_31" points="241.47271728515625,281.4848403930664 241.47271728515625,281.4848403930664 241.47271728515625,281.4848403930664 241.47271728515625,281.4848403930664 241.47271728515625,283.75757598876953 242.23028564453125,284.51514434814453 242.98785400390625,286.03031158447266 244.50299072265625,288.30301666259766 246.01812744140625,289.8181838989258 246.77569580078125,291.3333206176758 249.04840087890625,294.3636245727539 250.5635986328125,295.87879180908203 252.83636474609375,298.15152740478516 255.10906982421875,300.42423248291016 256.62420654296875,302.6969680786133 258.89691162109375,304.9697036743164 260.41204833984375,307.2424087524414 261.92724609375,308.75757598876953 262.684814453125,309.51514434814453 265.71514892578125,312.54544830322266 267.98785400390625,316.3333206176758 268.74542236328125,317.0909194946289 271.01812744140625,319.3636245727539 272.53326416015625,320.87879180908203 274.80596923828125,322.39392852783203 277.8363037109375,324.66666412353516 281.62420654296875,326.9393997192383 286.16961669921875,329.9697036743164 290.715087890625,331.4848403930664 294.50299072265625,333.00000762939453 300.5635986328125,334.51514434814453 304.35150146484375,335.27271270751953 306.62420654296875,335.27271270751953 308.13934326171875,335.27271270751953 " class=""/><polyline fill="none" stroke="#222222" style="color: rgb(0, 0, 0);" stroke-width="2" stroke-linejoin="round" stroke-dashoffset="" fill-rule="nonzero" marker-start="" marker-mid="" marker-end="" id="svg_32" points="325.5635986328125,165.57575225830078 325.5635986328125,165.57575225830078 " class=""/><polyline fill="none" stroke="#222222" style="color: rgb(0, 0, 0);" stroke-width="2" stroke-linejoin="round" stroke-dashoffset="" fill-rule="nonzero" marker-start="" marker-mid="" marker-end="" id="svg_33" points="256.62420654296875,244.36365509033203 256.62420654296875,244.36365509033203 255.86663818359375,244.36365509033203 254.35150146484375,244.36365509033203 252.83636474609375,244.36365509033203 252.0787353515625,244.36365509033203 250.5635986328125,244.36365509033203 249.04840087890625,244.36365509033203 248.29083251953125,244.36365509033203 246.77569580078125,244.36365509033203 245.26055908203125,244.36365509033203 243.74542236328125,244.36365509033203 242.23028564453125,243.6060562133789 240.71514892578125,243.6060562133789 239.95758056640625,243.6060562133789 238.4423828125,243.6060562133789 236.92724609375,242.8484878540039 235.41204833984375,242.8484878540039 234.65447998046875,242.8484878540039 233.13934326171875,242.0909194946289 231.62420654296875,242.0909194946289 230.86663818359375,241.3333511352539 229.35150146484375,241.3333511352539 227.83636474609375,240.57575225830078 227.0787353515625,240.57575225830078 225.5635986328125,239.81818389892578 224.8060302734375,239.81818389892578 223.2908935546875,239.06061553955078 221.7757568359375,238.30304718017578 220.26055908203125,237.54544830322266 218.74542236328125,236.78787994384766 217.23028564453125,236.78787994384766 216.47271728515625,236.03031158447266 215.71514892578125,235.27274322509766 214.19998168945312,234.51514434814453 214.19998168945312,234.51514434814453 212.68484497070312,233.75757598876953 211.92727661132812,233.00000762939453 211.169677734375,233.00000762939453 210.412109375,232.24243927001953 209.654541015625,231.48487091064453 208.13937377929688,230.7272720336914 207.38180541992188,230.7272720336914 206.62423706054688,229.9697036743164 205.10906982421875,229.9697036743164 203.59393310546875,229.2121353149414 202.83636474609375,229.2121353149414 201.32119750976562,228.4545669555664 200.56362915039062,227.69696807861328 199.80606079101562,226.93939971923828 198.2908935546875,226.18183135986328 197.5333251953125,226.18183135986328 196.7757568359375,225.42426300048828 196.01815795898438,225.42426300048828 195.26058959960938,224.66666412353516 194.50302124023438,224.66666412353516 192.98785400390625,223.90909576416016 192.98785400390625,223.90909576416016 192.23028564453125,223.15152740478516 191.47271728515625,223.15152740478516 189.95758056640625,223.15152740478516 189.19998168945312,222.39395904541016 188.44241333007812,222.39395904541016 187.68484497070312,221.63636016845703 187.68484497070312,221.63636016845703 186.92727661132812,220.87879180908203 186.169677734375,220.87879180908203 186.169677734375,220.87879180908203 185.412109375,220.87879180908203 185.412109375,220.12122344970703 184.654541015625,220.12122344970703 184.654541015625,220.12122344970703 184.654541015625,220.12122344970703 " class=""/><polyline fill="none" stroke="#222222" style="color: rgb(0, 0, 0);" stroke-width="2" stroke-linejoin="round" stroke-dashoffset="" fill-rule="nonzero" marker-start="" marker-mid="" marker-end="" id="svg_34" points="152.83636474609375,223.15152740478516 152.83636474609375,223.15152740478516 152.83636474609375,223.90909576416016 152.83636474609375,224.66666412353516 152.83636474609375,226.18183135986328 152.83636474609375,227.69696807861328 152.83636474609375,228.4545669555664 153.59393310546875,230.7272720336914 154.35150146484375,231.48487091064453 155.10906982421875,233.75757598876953 155.86666870117188,235.27274322509766 156.62423706054688,236.03031158447266 157.38180541992188,237.54544830322266 158.13937377929688,238.30304718017578 158.89697265625,239.06061553955078 158.89697265625,239.81818389892578 159.654541015625,241.3333511352539 160.412109375,242.0909194946289 160.412109375,242.8484878540039 161.169677734375,243.6060562133789 162.68484497070312,245.12122344970703 162.68484497070312,245.87879180908203 163.44241333007812,246.63636016845703 163.44241333007812,247.39395904541016 164.19998168945312,247.39395904541016 164.95758056640625,248.15152740478516 164.95758056640625,248.90909576416016 164.95758056640625,248.90909576416016 164.95758056640625,248.90909576416016 164.95758056640625,248.90909576416016 164.95758056640625,249.66666412353516 164.95758056640625,249.66666412353516 165.71514892578125,249.66666412353516 165.71514892578125,250.42426300048828 165.71514892578125,251.18183135986328 166.47271728515625,251.18183135986328 166.47271728515625,251.93939971923828 166.47271728515625,252.69696807861328 166.47271728515625,252.69696807861328 " class=""/><polyline fill="#000000" stroke="#222222" style="color: rgb(0, 0, 0);" stroke-width="2" stroke-linejoin="round" stroke-dashoffset="" fill-rule="nonzero" marker-start="" marker-mid="" marker-end="" id="svg_35" points="177.07876586914062,222.39395904541016 176.32119750976562,222.39395904541016 176.32119750976562,221.63636016845703 176.32119750976562,221.63636016845703 176.32119750976562,220.87879180908203 175.56362915039062,220.87879180908203 175.56362915039062,220.87879180908203 175.56362915039062,220.12122344970703 174.80606079101562,220.12122344970703 174.80606079101562,219.36365509033203 174.80606079101562,219.36365509033203 174.0484619140625,219.36365509033203 174.0484619140625,218.6060562133789 174.0484619140625,218.6060562133789 173.2908935546875,217.8484878540039 173.2908935546875,217.8484878540039 173.2908935546875,217.0909194946289 172.5333251953125,217.0909194946289 172.5333251953125,216.3333511352539 172.5333251953125,215.57575225830078 171.7757568359375,215.57575225830078 171.7757568359375,215.57575225830078 171.7757568359375,215.57575225830078 171.7757568359375,214.81818389892578 171.7757568359375,214.81818389892578 171.7757568359375,214.81818389892578 171.01815795898438,214.06061553955078 171.01815795898438,214.06061553955078 170.26058959960938,213.30304718017578 170.26058959960938,213.30304718017578 170.26058959960938,213.30304718017578 170.26058959960938,212.54544830322266 170.26058959960938,212.54544830322266 170.26058959960938,212.54544830322266 169.50302124023438,212.54544830322266 169.50302124023438,211.78787994384766 169.50302124023438,211.78787994384766 169.50302124023438,211.78787994384766 169.50302124023438,211.78787994384766 169.50302124023438,211.78787994384766 168.74545288085938,211.78787994384766 168.74545288085938,211.78787994384766 168.74545288085938,211.78787994384766 167.98788452148438,211.78787994384766 167.98788452148438,211.78787994384766 167.98788452148438,211.78787994384766 167.23028564453125,211.78787994384766 166.47271728515625,211.78787994384766 165.71514892578125,211.78787994384766 164.95758056640625,213.30304718017578 164.19998168945312,214.06061553955078 164.19998168945312,214.81818389892578 163.44241333007812,214.81818389892578 163.44241333007812,215.57575225830078 163.44241333007812,215.57575225830078 162.68484497070312,216.3333511352539 162.68484497070312,216.3333511352539 161.92727661132812,217.0909194946289 161.92727661132812,217.8484878540039 161.169677734375,217.8484878540039 161.169677734375,218.6060562133789 161.169677734375,218.6060562133789 161.169677734375,218.6060562133789 161.169677734375,218.6060562133789 160.412109375,218.6060562133789 160.412109375,219.36365509033203 160.412109375,219.36365509033203 160.412109375,219.36365509033203 160.412109375,219.36365509033203 159.654541015625,220.12122344970703 159.654541015625,220.87879180908203 158.89697265625,220.87879180908203 158.89697265625,221.63636016845703 158.89697265625,221.63636016845703 158.13937377929688,221.63636016845703 158.13937377929688,221.63636016845703 158.13937377929688,221.63636016845703 157.38180541992188,222.39395904541016 156.62423706054688,222.39395904541016 156.62423706054688,222.39395904541016 156.62423706054688,223.15152740478516 156.62423706054688,223.15152740478516 156.62423706054688,223.15152740478516 155.86666870117188,223.15152740478516 155.86666870117188,223.15152740478516 155.86666870117188,223.90909576416016 155.10906982421875,223.90909576416016 155.10906982421875,223.90909576416016 154.35150146484375,223.90909576416016 154.35150146484375,223.90909576416016 154.35150146484375,223.90909576416016 154.35150146484375,223.90909576416016 154.35150146484375,223.90909576416016 154.35150146484375,223.90909576416016 154.35150146484375,222.39395904541016 154.35150146484375,221.63636016845703 154.35150146484375,220.87879180908203 154.35150146484375,219.36365509033203 154.35150146484375,217.8484878540039 154.35150146484375,216.3333511352539 153.59393310546875,214.81818389892578 153.59393310546875,213.30304718017578 152.83636474609375,211.78787994384766 152.83636474609375,210.27274322509766 152.07876586914062,208.75757598876953 152.07876586914062,207.24243927001953 151.32119750976562,206.48487091064453 151.32119750976562,204.9697036743164 150.56362915039062,203.4545669555664 149.80606079101562,201.93939971923828 149.80606079101562,200.42426300048828 149.04849243164062,198.90909576416016 148.2908935546875,198.15152740478516 148.2908935546875,196.63636016845703 147.5333251953125,195.12122344970703 147.5333251953125,194.36365509033203 146.77572631835938,192.8484878540039 146.77572631835938,192.0909194946289 146.01815795898438,190.57575225830078 146.01815795898438,189.06061553955078 145.26058959960938,188.30304718017578 145.26058959960938,186.78787994384766 144.50302124023438,185.27274322509766 144.50302124023438,184.51514434814453 144.50302124023438,183.75757598876953 143.74545288085938,182.24243927001953 143.74545288085938,181.48487091064453 143.74545288085938,179.9697036743164 142.98788452148438,179.2121353149414 142.98788452148438,178.45453643798828 142.98788452148438,177.69696807861328 142.23031616210938,176.18183135986328 142.23031616210938,175.42426300048828 141.47271728515625,173.90909576416016 141.47271728515625,173.15152740478516 140.71514892578125,171.63636016845703 140.71514892578125,170.87879180908203 139.95755004882812,169.36365509033203 139.95755004882812,167.8484878540039 139.19998168945312,165.57575225830078 139.19998168945312,164.06061553955078 138.44241333007812,161.03031158447266 136.92727661132812,159.51514434814453 136.92727661132812,157.24243927001953 135.412109375,154.9697036743164 134.654541015625,153.45453643798828 133.89694213867188,151.18183135986328 133.13937377929688,149.66667938232422 132.38180541992188,148.15152740478516 132.38180541992188,146.6363754272461 131.62423706054688,145.12122344970703 131.62423706054688,144.36363983154297 130.86666870117188,142.8484878540039 130.86666870117188,141.33333587646484 130.10910034179688,140.57576751708984 130.10910034179688,139.81818389892578 130.10910034179688,139.06061553955078 130.10910034179688,139.06061553955078 130.10910034179688,138.30303192138672 130.10910034179688,138.30303192138672 130.10910034179688,138.30303192138672 130.10910034179688,138.30303192138672 131.62423706054688,139.81818389892578 132.38180541992188,141.33333587646484 133.89694213867188,142.0909194946289 135.412109375,143.60607147216797 136.92727661132812,145.87879180908203 137.68484497070312,147.3939437866211 139.19998168945312,148.15152740478516 139.95755004882812,149.66667938232422 141.47271728515625,151.93939971923828 141.47271728515625,152.69698333740234 142.23031616210938,154.2121353149414 142.98788452148438,154.9697036743164 143.74545288085938,156.4848403930664 143.74545288085938,158.00000762939453 144.50302124023438,159.51514434814453 145.26058959960938,161.03031158447266 146.01815795898438,161.78787994384766 146.77572631835938,164.81818389892578 147.5333251953125,166.33332061767578 148.2908935546875,167.8484878540039 149.04849243164062,169.36365509033203 149.80606079101562,170.87879180908203 150.56362915039062,172.39392852783203 151.32119750976562,173.90909576416016 152.07876586914062,175.42426300048828 152.83636474609375,176.93939971923828 153.59393310546875,178.45453643798828 154.35150146484375,180.72730255126953 155.10906982421875,182.24243927001953 155.86666870117188,183.75757598876953 156.62423706054688,185.27274322509766 157.38180541992188,186.78787994384766 158.13937377929688,187.54547882080078 158.89697265625,189.06061553955078 158.89697265625,189.81818389892578 159.654541015625,190.57575225830078 159.654541015625,191.33332061767578 160.412109375,192.8484878540039 161.169677734375,193.6060562133789 161.92727661132812,194.36365509033203 161.92727661132812,195.12122344970703 162.68484497070312,195.12122344970703 162.68484497070312,195.87879180908203 162.68484497070312,196.63636016845703 163.44241333007812,197.39395904541016 163.44241333007812,198.90909576416016 164.19998168945312,199.66666412353516 164.19998168945312,201.18183135986328 164.95758056640625,201.93939971923828 165.71514892578125,203.4545669555664 165.71514892578125,204.2121353149414 166.47271728515625,204.9697036743164 166.47271728515625,204.9697036743164 166.47271728515625,205.7272720336914 166.47271728515625,206.48487091064453 167.23028564453125,207.24243927001953 167.23028564453125,207.24243927001953 167.23028564453125,208.00000762939453 " class="" fill-opacity="1"/><polyline fill="none" stroke="#222222" style="color: rgb(0, 0, 0);" stroke-width="2" stroke-linejoin="round" stroke-dashoffset="" fill-rule="nonzero" marker-start="" marker-mid="" marker-end="" id="svg_36" points="180.10906982421875,220.87879180908203 180.10906982421875,220.87879180908203 180.86666870117188,220.87879180908203 180.86666870117188,220.87879180908203 " class=""/><polyline fill="#000000" stroke="#222222" style="color: rgb(0, 0, 0);" stroke-width="2" stroke-linejoin="round" stroke-dashoffset="" fill-rule="nonzero" marker-start="" marker-mid="" marker-end="" id="svg_37" points="250.5635986328125,29.212120056152344 249.8060302734375,29.212120056152344 247.53326416015625,29.212120056152344 244.50299072265625,29.212120056152344 240.71514892578125,29.212120056152344 235.41204833984375,29.212120056152344 228.59393310546875,29.212120056152344 224.8060302734375,29.212120056152344 221.01812744140625,28.454551696777344 215.71514892578125,27.696983337402344 211.92727661132812,26.93939971923828 208.13937377929688,26.18183135986328 204.35150146484375,25.424240112304688 201.32119750976562,24.666664123535156 197.5333251953125,23.909088134765625 193.74545288085938,23.909088134765625 190.71514892578125,23.151512145996094 187.68484497070312,22.393936157226562 183.89697265625,21.63636016845703 180.86666870117188,20.8787841796875 179.35150146484375,20.12120819091797 177.07876586914062,19.363632202148438 174.80606079101562,18.606056213378906 173.2908935546875,17.848480224609375 171.7757568359375,17.848480224609375 170.26058959960938,17.090904235839844 168.74545288085938,16.333328247070312 167.98788452148438,15.575752258300781 166.47271728515625,15.575752258300781 164.95758056640625,14.81817626953125 163.44241333007812,14.81817626953125 162.68484497070312,14.060600280761719 162.68484497070312,14.060600280761719 161.92727661132812,14.060600280761719 161.92727661132812,14.060600280761719 161.169677734375,14.060600280761719 161.169677734375,14.060600280761719 161.92727661132812,14.060600280761719 161.92727661132812,14.060600280761719 162.68484497070312,14.81817626953125 164.19998168945312,14.81817626953125 164.95758056640625,15.575752258300781 165.71514892578125,16.333328247070312 167.23028564453125,17.090904235839844 167.98788452148438,17.848480224609375 169.50302124023438,18.606056213378906 170.26058959960938,19.363632202148438 171.7757568359375,20.12120819091797 172.5333251953125,20.12120819091797 173.2908935546875,20.8787841796875 174.80606079101562,21.63636016845703 174.80606079101562,21.63636016845703 176.32119750976562,22.393936157226562 177.07876586914062,23.151512145996094 178.59393310546875,23.909088134765625 179.35150146484375,23.909088134765625 180.10906982421875,24.666664123535156 181.62423706054688,25.424240112304688 182.38180541992188,26.18183135986328 183.13937377929688,26.18183135986328 183.89697265625,26.93939971923828 185.412109375,27.696983337402344 186.169677734375,28.454551696777344 186.92727661132812,28.454551696777344 188.44241333007812,29.212120056152344 189.19998168945312,29.969703674316406 190.71514892578125,30.727272033691406 191.47271728515625,30.727272033691406 192.23028564453125,31.48485565185547 192.98785400390625,31.48485565185547 194.50302124023438,32.24242401123047 195.26058959960938,32.24242401123047 196.01815795898438,33.00000762939453 197.5333251953125,33.00000762939453 198.2908935546875,33.00000762939453 199.0484619140625,33.75757598876953 199.80606079101562,33.75757598876953 200.56362915039062,34.515159606933594 201.32119750976562,34.515159606933594 202.07876586914062,34.515159606933594 202.83636474609375,34.515159606933594 203.59393310546875,34.515159606933594 204.35150146484375,34.515159606933594 205.10906982421875,35.272727966308594 206.62423706054688,35.272727966308594 207.38180541992188,35.272727966308594 208.89697265625,36.030311584472656 209.654541015625,36.030311584472656 209.654541015625,36.030311584472656 210.412109375,36.030311584472656 211.169677734375,36.030311584472656 211.92727661132812,36.787879943847656 212.68484497070312,36.787879943847656 213.44241333007812,36.787879943847656 214.19998168945312,36.787879943847656 214.95758056640625,36.787879943847656 216.47271728515625,36.787879943847656 216.47271728515625,36.787879943847656 217.98785400390625,36.787879943847656 218.74542236328125,36.787879943847656 219.50299072265625,36.787879943847656 221.01812744140625,36.787879943847656 221.7757568359375,36.787879943847656 222.5333251953125,36.787879943847656 224.0484619140625,36.787879943847656 224.0484619140625,36.787879943847656 224.8060302734375,36.787879943847656 225.5635986328125,36.787879943847656 225.5635986328125,36.787879943847656 226.3211669921875,36.787879943847656 227.0787353515625,36.787879943847656 227.0787353515625,36.787879943847656 227.83636474609375,36.787879943847656 228.59393310546875,36.787879943847656 229.35150146484375,36.787879943847656 230.10906982421875,36.787879943847656 230.10906982421875,36.787879943847656 230.86663818359375,36.030311584472656 231.62420654296875,36.030311584472656 232.38177490234375,36.030311584472656 232.38177490234375,36.030311584472656 233.13934326171875,35.272727966308594 233.89691162109375,35.272727966308594 234.65447998046875,35.272727966308594 235.41204833984375,35.272727966308594 236.16961669921875,35.272727966308594 236.92724609375,34.515159606933594 237.684814453125,34.515159606933594 238.4423828125,34.515159606933594 238.4423828125,34.515159606933594 239.199951171875,34.515159606933594 239.199951171875,33.75757598876953 239.95758056640625,33.75757598876953 239.95758056640625,33.75757598876953 240.71514892578125,33.75757598876953 241.47271728515625,33.75757598876953 241.47271728515625,33.75757598876953 241.47271728515625,33.75757598876953 241.47271728515625,33.75757598876953 242.23028564453125,33.75757598876953 242.23028564453125,33.75757598876953 242.98785400390625,33.00000762939453 243.74542236328125,33.00000762939453 245.26055908203125,33.00000762939453 245.26055908203125,33.00000762939453 246.01812744140625,33.00000762939453 246.77569580078125,33.00000762939453 246.77569580078125,33.00000762939453 246.77569580078125,33.00000762939453 247.53326416015625,33.00000762939453 247.53326416015625,33.00000762939453 247.53326416015625,33.00000762939453 248.29083251953125,33.00000762939453 249.04840087890625,33.00000762939453 249.8060302734375,33.00000762939453 250.5635986328125,33.00000762939453 250.5635986328125,33.00000762939453 251.3211669921875,33.00000762939453 251.3211669921875,33.00000762939453 252.0787353515625,33.00000762939453 252.0787353515625,33.00000762939453 252.83636474609375,33.00000762939453 252.83636474609375,33.00000762939453 252.83636474609375,33.00000762939453 252.83636474609375,32.24242401123047 252.83636474609375,32.24242401123047 252.83636474609375,32.24242401123047 252.83636474609375,32.24242401123047 252.83636474609375,31.48485565185547 252.83636474609375,31.48485565185547 252.83636474609375,31.48485565185547 252.83636474609375,31.48485565185547 252.83636474609375,31.48485565185547 " class="" fill-opacity="1"/><polyline fill="none" stroke="#222222" style="color: rgb(0, 0, 0);" stroke-width="2" stroke-linejoin="round" stroke-dashoffset="" fill-rule="nonzero" marker-start="" marker-mid="" marker-end="" id="svg_38" points="166.47271728515625,251.93939971923828 167.23028564453125,251.93939971923828 167.23028564453125,251.93939971923828 167.98788452148438,251.93939971923828 168.74545288085938,251.93939971923828 172.5333251953125,251.93939971923828 173.2908935546875,251.93939971923828 174.0484619140625,251.93939971923828 177.07876586914062,252.69696807861328 179.35150146484375,253.4545669555664 180.86666870117188,254.2121353149414 182.38180541992188,254.9697036743164 185.412109375,255.7272720336914 187.68484497070312,256.48487091064453 189.19998168945312,257.24243927001953 191.47271728515625,258.00000762939453 192.98785400390625,258.00000762939453 193.74545288085938,258.75757598876953 195.26058959960938,259.51514434814453 196.01815795898438,259.51514434814453 197.5333251953125,260.27274322509766 199.0484619140625,261.03031158447266 200.56362915039062,261.03031158447266 201.32119750976562,261.78787994384766 202.83636474609375,262.54544830322266 203.59393310546875,263.3030471801758 205.10906982421875,263.3030471801758 206.62423706054688,264.0606155395508 207.38180541992188,264.8181838989258 208.89697265625,265.5757522583008 209.654541015625,266.3333511352539 211.169677734375,267.0909194946289 211.92727661132812,267.0909194946289 213.44241333007812,267.8484878540039 214.19998168945312,268.6060562133789 214.95758056640625,269.36365509033203 215.71514892578125,269.36365509033203 216.47271728515625,270.12122344970703 217.23028564453125,270.87879180908203 217.98785400390625,270.87879180908203 218.74542236328125,271.63636016845703 220.26055908203125,272.39395904541016 221.01812744140625,273.15152740478516 221.7757568359375,273.90909576416016 222.5333251953125,274.66666412353516 223.2908935546875,274.66666412353516 224.0484619140625,275.4242630004883 224.8060302734375,275.4242630004883 226.3211669921875,276.1818313598633 226.3211669921875,276.9393997192383 227.83636474609375,276.9393997192383 228.59393310546875,277.6969680786133 229.35150146484375,278.4545669555664 230.86663818359375,279.2121353149414 231.62420654296875,279.2121353149414 232.38177490234375,279.9697036743164 233.13934326171875,279.9697036743164 233.89691162109375,280.7272720336914 234.65447998046875,280.7272720336914 234.65447998046875,281.48487091064453 235.41204833984375,281.48487091064453 235.41204833984375,282.24243927001953 236.16961669921875,282.24243927001953 236.92724609375,283.00000762939453 236.92724609375,283.00000762939453 237.684814453125,283.75757598876953 237.684814453125,283.75757598876953 237.684814453125,283.75757598876953 237.684814453125,283.75757598876953 237.684814453125,283.75757598876953 238.4423828125,283.75757598876953 238.4423828125,284.51514434814453 239.199951171875,285.27274322509766 239.95758056640625,286.03031158447266 239.95758056640625,286.03031158447266 240.71514892578125,286.78787994384766 240.71514892578125,286.78787994384766 240.71514892578125,286.78787994384766 241.47271728515625,287.54544830322266 242.23028564453125,289.8181838989258 " class=""/><polyline fill="none" stroke="#222222" style="color: rgb(0, 0, 0);" stroke-width="2" stroke-linejoin="round" stroke-dashoffset="" fill-rule="nonzero" marker-start="" marker-mid="" marker-end="" id="svg_39" points="286.16961669921875,145.12122344970703 286.16961669921875,145.12122344970703 286.16961669921875,144.36363983154297 286.16961669921875,144.36363983154297 286.16961669921875,143.60607147216797 286.16961669921875,143.60607147216797 286.16961669921875,142.8484878540039 286.16961669921875,142.8484878540039 286.16961669921875,142.0909194946289 286.16961669921875,141.33333587646484 286.16961669921875,141.33333587646484 286.16961669921875,141.33333587646484 286.16961669921875,140.57576751708984 286.16961669921875,140.57576751708984 286.16961669921875,139.81818389892578 286.16961669921875,139.81818389892578 286.16961669921875,139.06061553955078 286.16961669921875,139.06061553955078 286.16961669921875,138.30303192138672 286.16961669921875,138.30303192138672 286.16961669921875,137.54546356201172 286.16961669921875,136.78787994384766 286.92724609375,136.78787994384766 286.92724609375,136.03031158447266 286.92724609375,135.27274322509766 286.92724609375,134.5151596069336 286.92724609375,133.7575912475586 286.92724609375,133.7575912475586 286.92724609375,133.00000762939453 286.92724609375,133.00000762939453 286.92724609375,132.24243927001953 286.92724609375,131.48485565185547 286.92724609375,131.48485565185547 286.92724609375,130.72728729248047 286.92724609375,129.9697036743164 286.92724609375,129.9697036743164 286.92724609375,129.2121353149414 286.92724609375,129.2121353149414 286.92724609375,128.45455169677734 286.92724609375,128.45455169677734 286.92724609375,127.69698333740234 286.92724609375,126.93939971923828 286.92724609375,126.18183135986328 286.92724609375,125.42424774169922 286.92724609375,124.66667938232422 286.92724609375,124.66667938232422 286.92724609375,123.90909576416016 286.16961669921875,123.15152740478516 286.16961669921875,123.15152740478516 286.16961669921875,122.3939437866211 286.16961669921875,121.6363754272461 286.16961669921875,120.87879180908203 285.41204833984375,120.87879180908203 285.41204833984375,120.12122344970703 285.41204833984375,120.12122344970703 284.65447998046875,119.36363983154297 284.65447998046875,119.36363983154297 284.65447998046875,118.60607147216797 284.65447998046875,118.60607147216797 284.65447998046875,117.8484878540039 283.89691162109375,117.8484878540039 283.89691162109375,117.0909194946289 283.89691162109375,117.0909194946289 283.89691162109375,117.0909194946289 283.89691162109375,117.0909194946289 283.89691162109375,116.33333587646484 283.89691162109375,116.33333587646484 283.89691162109375,115.57576751708984 283.89691162109375,115.57576751708984 283.89691162109375,115.57576751708984 283.89691162109375,114.81818389892578 283.89691162109375,114.81818389892578 " class=""/><polyline fill="none" stroke="#222222" style="color: rgb(0, 0, 0);" stroke-width="2" stroke-linejoin="round" stroke-dashoffset="" fill-rule="nonzero" marker-start="" marker-mid="" marker-end="" id="svg_40" points="314.199951171875,107.24243927001953 314.199951171875,107.24243927001953 314.199951171875,108.7575912475586 314.95751953125,109.5151596069336 314.95751953125,110.27274322509766 315.71514892578125,111.03031158447266 316.47271728515625,111.78789520263672 316.47271728515625,112.54546356201172 317.23028564453125,113.30303192138672 317.23028564453125,113.30303192138672 317.98785400390625,114.81818389892578 317.98785400390625,115.57576751708984 318.74542236328125,115.57576751708984 318.74542236328125,116.33333587646484 319.50299072265625,117.0909194946289 319.50299072265625,117.0909194946289 319.50299072265625,117.8484878540039 319.50299072265625,117.8484878540039 320.26055908203125,118.60607147216797 320.26055908203125,118.60607147216797 320.26055908203125,118.60607147216797 320.26055908203125,118.60607147216797 320.26055908203125,119.36363983154297 320.26055908203125,119.36363983154297 319.50299072265625,119.36363983154297 319.50299072265625,120.12122344970703 319.50299072265625,120.12122344970703 319.50299072265625,120.12122344970703 319.50299072265625,120.12122344970703 319.50299072265625,120.12122344970703 319.50299072265625,120.87879180908203 319.50299072265625,120.87879180908203 319.50299072265625,120.87879180908203 319.50299072265625,120.87879180908203 319.50299072265625,121.6363754272461 319.50299072265625,121.6363754272461 319.50299072265625,121.6363754272461 318.74542236328125,121.6363754272461 318.74542236328125,122.3939437866211 318.74542236328125,122.3939437866211 318.74542236328125,122.3939437866211 318.74542236328125,122.3939437866211 318.74542236328125,123.15152740478516 318.74542236328125,123.15152740478516 318.74542236328125,123.15152740478516 " class=""/><polyline fill="none" stroke="#222222" style="color: rgb(0, 0, 0);" stroke-width="2" stroke-linejoin="round" stroke-dashoffset="" fill-rule="nonzero" marker-start="" marker-mid="" marker-end="" id="svg_41" points="308.89691162109375,95.87879180908203 308.89691162109375,95.87879180908203 308.89691162109375,95.87879180908203 308.89691162109375,95.87879180908203 308.13934326171875,95.12122344970703 308.13934326171875,94.36363983154297 308.13934326171875,94.36363983154297 307.38177490234375,93.60607147216797 307.38177490234375,93.60607147216797 307.38177490234375,92.8484878540039 306.62420654296875,92.0909194946289 306.62420654296875,92.0909194946289 306.62420654296875,91.33333587646484 305.86663818359375,91.33333587646484 305.86663818359375,91.33333587646484 305.86663818359375,90.57576751708984 305.10906982421875,90.57576751708984 305.10906982421875,89.81818389892578 305.10906982421875,89.81818389892578 304.35150146484375,89.06061553955078 304.35150146484375,88.30304718017578 303.59393310546875,87.54546356201172 303.59393310546875,87.54546356201172 303.59393310546875,86.78789520263672 303.59393310546875,86.78789520263672 302.83636474609375,86.03031158447266 302.83636474609375,86.03031158447266 302.83636474609375,86.03031158447266 302.83636474609375,86.03031158447266 302.83636474609375,85.27274322509766 302.83636474609375,85.27274322509766 302.83636474609375,85.27274322509766 302.83636474609375,84.5151596069336 302.83636474609375,84.5151596069336 302.83636474609375,84.5151596069336 302.0787353515625,83.7575912475586 302.0787353515625,83.00000762939453 302.0787353515625,83.00000762939453 302.0787353515625,83.00000762939453 302.0787353515625,83.00000762939453 302.0787353515625,82.24243927001953 302.0787353515625,82.24243927001953 302.0787353515625,82.24243927001953 302.0787353515625,82.24243927001953 302.0787353515625,81.48485565185547 302.0787353515625,80.72728729248047 302.0787353515625,80.72728729248047 302.0787353515625,80.72728729248047 302.0787353515625,80.72728729248047 302.0787353515625,79.9697036743164 302.0787353515625,79.9697036743164 301.3211669921875,79.2121353149414 301.3211669921875,79.2121353149414 301.3211669921875,78.45455169677734 301.3211669921875,78.45455169677734 " class=""/><polyline fill="none" stroke="#222222" style="color: rgb(0, 0, 0);" stroke-width="2" stroke-linejoin="round" stroke-dashoffset="" fill-rule="nonzero" marker-start="" marker-mid="" marker-end="" id="svg_42" points="168.74545288085938,210.27274322509766 168.74545288085938,210.27274322509766 168.74545288085938,210.27274322509766 168.74545288085938,209.51514434814453 168.74545288085938,209.51514434814453 168.74545288085938,209.51514434814453 168.74545288085938,208.75757598876953 168.74545288085938,208.75757598876953 167.98788452148438,208.75757598876953 167.98788452148438,208.00000762939453 167.98788452148438,208.00000762939453 167.98788452148438,208.00000762939453 167.98788452148438,207.24243927001953 167.98788452148438,208.00000762939453 167.98788452148438,208.00000762939453 167.98788452148438,208.00000762939453 167.98788452148438,208.75757598876953 167.98788452148438,208.75757598876953 167.98788452148438,209.51514434814453 167.98788452148438,209.51514434814453 167.98788452148438,209.51514434814453 167.98788452148438,210.27274322509766 167.98788452148438,210.27274322509766 167.98788452148438,210.27274322509766 167.98788452148438,211.03031158447266 167.98788452148438,211.03031158447266 167.98788452148438,211.03031158447266 167.98788452148438,211.78787994384766 " class=""/><polyline fill="none" stroke="#222222" style="color: rgb(0, 0, 0);" stroke-width="2" stroke-linejoin="round" stroke-dashoffset="" fill-rule="nonzero" marker-start="" marker-mid="" marker-end="" id="svg_43" points="251.3211669921875,29.969703674316406 250.5635986328125,29.969703674316406 250.5635986328125,29.969703674316406 250.5635986328125,29.969703674316406 249.8060302734375,29.969703674316406 249.8060302734375,29.969703674316406 249.8060302734375,29.969703674316406 249.04840087890625,29.969703674316406 249.04840087890625,29.969703674316406 249.04840087890625,29.969703674316406 249.04840087890625,29.969703674316406 248.29083251953125,29.969703674316406 " class=""/><polyline fill="none" stroke="#222222" style="color: rgb(0, 0, 0);" stroke-width="2" stroke-linejoin="round" stroke-dashoffset="" fill-rule="nonzero" marker-start="" marker-mid="" marker-end="" id="svg_44" points="342.98785400390625,166.33332061767578 343.74542236328125,166.33332061767578 343.74542236328125,166.33332061767578 344.50299072265625,166.33332061767578 346.01812744140625,166.33332061767578 346.77569580078125,166.33332061767578 348.29083251953125,166.33332061767578 349.04840087890625,166.33332061767578 350.56353759765625,166.33332061767578 352.0787353515625,167.8484878540039 352.8363037109375,168.60608673095703 354.3514404296875,170.12122344970703 355.10906982421875,171.63636016845703 356.62420654296875,173.15152740478516 357.38177490234375,174.66669464111328 358.89691162109375,176.93939971923828 359.65447998046875,177.69696807861328 360.41204833984375,179.2121353149414 361.16961669921875,180.72730255126953 362.68475341796875,182.24243927001953 363.44232177734375,183.75760650634766 364.19989013671875,184.51517486572266 364.19989013671875,186.03031158447266 365.715087890625,188.30304718017578 365.715087890625,190.5757827758789 366.47265625,192.8484878540039 367.230224609375,195.12122344970703 367.230224609375,197.39395904541016 367.230224609375,200.42426300048828 367.230224609375,204.96973419189453 367.230224609375,208.75760650634766 367.230224609375,211.78791046142578 367.230224609375,215.5757827758789 366.47265625,218.60608673095703 365.715087890625,221.63639068603516 365.715087890625,224.66669464111328 364.95751953125,226.9394302368164 364.95751953125,229.2121353149414 364.19989013671875,231.48487091064453 364.19989013671875,234.51517486572266 363.44232177734375,239.06061553955078 362.68475341796875,242.84851837158203 362.68475341796875,245.87882232666016 361.92718505859375,248.90912628173828 361.92718505859375,251.18183135986328 361.16961669921875,254.2121353149414 361.16961669921875,256.48487091064453 360.41204833984375,258.75760650634766 359.65447998046875,261.03031158447266 359.65447998046875,263.3030471801758 358.89691162109375,264.8182144165039 358.89691162109375,266.3333511352539 358.89691162109375,267.84851837158203 358.89691162109375,270.12122344970703 358.13934326171875,271.63639068603516 358.13934326171875,273.15152740478516 358.13934326171875,276.1818313598633 358.13934326171875,278.4545669555664 358.13934326171875,279.96973419189453 358.13934326171875,282.24243927001953 358.13934326171875,285.27274322509766 358.89691162109375,287.5454788208008 358.89691162109375,289.0606155395508 359.65447998046875,292.84851837158203 360.41204833984375,295.87882232666016 361.16961669921875,298.15152740478516 361.92718505859375,301.1818313598633 362.68475341796875,303.4545669555664 363.44232177734375,305.72730255126953 364.19989013671875,308.00003814697266 365.715087890625,311.03031158447266 367.230224609375,313.3030471801758 367.98785400390625,314.8182144165039 368.74542236328125,317.0909194946289 369.50299072265625,318.60608673095703 369.50299072265625,319.36365509033203 370.26055908203125,320.12122344970703 370.26055908203125,320.87882232666016 370.26055908203125,320.87882232666016 370.26055908203125,320.87882232666016 " class="" transform="rotate(1.02303, 356.624, 243.606)"/></g></g></svg>